<?xml version="1.0" encoding="UTF-8"?>
<svg id="Capa_1" xmlns="http://www.w3.org/2000/svg" version="1.1" viewBox="0 0 1500 632.85">
  <!-- Generator: Adobe Illustrator 30.5.1, SVG Export Plug-In . SVG Version: 2.1.4 Build 3)  -->
  <path d="M1450.19,570.37c1.76-.62,3.38-.92,4.83-.92,3.38,0,6.15,1.05,8.33,3.17,2.17,2.11,3.25,4.72,3.25,7.83s-1.17,5.49-3.51,7.48c-2.35,2-6.07,2.99-11.18,2.99h-1.72v-20.56ZM1436.53,569.04c1.73,0,2.95.24,3.66.72.71.48,1.2,1.16,1.47,2.04.12.5.18,2.17.18,5v30.08c0,2.8-.08,4.44-.23,4.94-.34,1-.91,1.75-1.7,2.25-.79.5-2.14.75-4.06.75v1.9h21.13v-1.9c-2.57,0-4.29-.29-5.15-.87-.87-.58-1.41-1.5-1.64-2.76v-17.8h4.37l16.93,23.32h10.59v-1.9c-1.3-.12-2.32-.41-3.05-.87-1.15-.76-2.46-2.17-3.92-4.2l-12.03-17.16c4.57-1.19,7.84-2.89,9.82-5.1,1.98-2.21,2.97-4.77,2.97-7.69,0-3.57-1.47-6.62-4.38-9.13-2.92-2.52-7.16-3.77-12.73-3.77h-22.23v2.13ZM1477.48,559.54c5.96,3.23,10.6,7.83,13.94,13.79,3.34,5.97,5.01,12.2,5.01,18.69s-1.64,12.63-4.93,18.54c-3.28,5.92-7.89,10.52-13.82,13.82-5.93,3.31-12.12,4.96-18.57,4.96s-12.64-1.65-18.55-4.96c-5.91-3.3-10.51-7.9-13.79-13.82-3.28-5.91-4.93-12.09-4.93-18.54s1.67-12.72,5.01-18.69c3.34-5.96,7.98-10.56,13.94-13.79,5.95-3.22,12.05-4.83,18.31-4.83s12.42,1.61,18.37,4.83M1439.07,556.46c-6.53,3.52-11.62,8.54-15.29,15.08-3.67,6.55-5.5,13.38-5.5,20.48s1.81,13.84,5.42,20.32c3.6,6.49,8.65,11.53,15.12,15.12,6.47,3.59,13.24,5.38,20.3,5.38s13.84-1.79,20.33-5.38c6.49-3.59,11.53-8.63,15.14-15.12,3.61-6.49,5.42-13.26,5.42-20.32s-1.83-13.93-5.5-20.48c-3.66-6.54-8.76-11.57-15.29-15.08-6.53-3.52-13.23-5.27-20.1-5.27s-13.52,1.75-20.04,5.27"/>
  <path d="M1147.56,564.42c-7.06,0-12.89-2.68-17.49-8.04-4.61-5.35-6.91-13.53-6.91-24.53,0-13.39,5.67-33.62,17-60.68,8.26-19.63,22.36-44.09,42.27-73.4,19.92-29.3,40.58-53.32,62.03-72.06,15.92-13.68,33.54-24.99,52.83-33.91,8.58-3.86,18.84-5.8,30.79-5.8,10.41,0,17.91,2.23,22.51,6.69,6.91,7.44,10.38,15.33,10.38,23.65,0,2.67-2.09,13.09-6.25,31.23l-11.6,30.79c-11.96,22.91-19.79,36.89-23.47,41.94-13.5,20.23-25.62,36.14-36.35,47.74-4.91,5.36-26.08,26.33-63.5,62.91-20.56,14.58-32.52,22.76-35.9,24.54-5.52,3.27-11.96,5.8-19.33,7.59-8.89.89-14.58,1.34-17.03,1.34M1365.06,265.03c-6.08-1.18-12.47-1.79-19.15-1.79-20.37,0-44.39,5.96-72.05,17.84-20.98,8.93-44.01,23.06-69.08,42.39-25.09,19.33-50.39,45.5-75.93,78.53-14.9,19.04-29.64,48.34-44.23,87.9-8.51,23.2-12.76,44.32-12.76,63.36,0,13.09,1.68,22.76,5.04,29,4.58,8.33,10.55,14.42,17.89,18.29,3.97,2.08,11.93,3.27,23.85,3.57,14.07-1.19,26.3-3.72,36.7-7.59,28.14-13.67,45.88-23.64,53.22-29.89,32.11-27.07,60.56-55.77,85.33-86.11,8.56-11,15.75-19.33,21.56-24.99-9.22,19.93-15.33,33.9-18.3,41.94-5.06,13.09-9.07,22.75-12.04,29-2.98,6.24-8.19,19.19-15.61,38.82-2.98,11.31-4.46,19-4.46,23.08,0,4.67,1.64,8.46,4.91,11.37,3.27,2.91,8.2,4.37,14.75,4.37,10.27,0,21.24-3.12,32.93-9.37,15.11-8.32,32.07-22.45,50.88-42.39,18.81-19.93,32.21-35.69,40.19-47.29-2.79-3.27-5.85-6.4-9.2-9.37-2.79,3.27-5.71,6.84-8.78,10.7-4.18,5.36-17.42,19.19-39.7,41.5-8.64,8.63-19.22,16.66-31.75,24.1-3.14-2.86-4.72-5.15-4.72-6.87l1.78-4.29c5.66-9.52,11.91-25.36,18.76-47.51,6.84-22.16,14.95-43.94,24.33-65.36,9.37-21.41,20.31-50.11,32.81-86.1l29.47-79.86,3.57-8.92c2.98-9.52,4.92-15.17,5.81-16.96,1.49-3.57,2.23-6.24,2.23-8.03l-1.33-5.38c-4.77-2.08-9.69-3.13-14.76-3.13-3.87,0-9.98.44-18.32,1.33-3.58,2.68-7.16,8.48-10.73,17.4-.89,2.98-2.83,6.99-5.8,12.05-5.47-2.38-11.25-4.16-17.33-5.36M777.76,31.11c4.16,3.71,6.24,7.71,6.24,11.99,0,1.72-.3,3.86-.9,6.42-6.84,25.29-17.7,53.7-32.57,85.22-14.87,31.53-36.14,84.48-63.8,158.84-15.77,42.54-30.94,80.31-45.51,113.33-47.59,108.87-71.39,170.3-71.39,184.28,0,4.15,1.28,7.59,3.85,10.26,2.57,2.67,6.42,4.01,11.57,4.01,9.71,0,19.57-2.23,29.57-6.69,15.7-6.84,32.12-16.81,49.26-29.9,7.71-5.64,21.7-19.19,41.99-40.6,12.85-13.68,24.85-31.38,35.99-53.1l-4.97-.44c-3.04,0-7.33.6-12.85,1.79-17.13,27.37-36.2,49.82-57.19,67.37-14.38,12.49-26.42,19.19-36.15,20.07l-1.79-7.11c0-7.7,4.9-19.56,14.73-35.56,6.24-9.82,14.58-28.85,24.99-57.1l14.73-38.82c24.99-61.56,42.85-107.07,53.56-136.51l60.26-157.05c21.12-53.83,31.99-81.35,32.59-82.54l13.84-43.27V0h-19.72c-18.83,0-46.47,1.5-82.93,4.47l-1.33,12.93c19.93,4.58,32.57,9.14,37.93,13.71M445.76,340.88c20.23-37.77,39.56-64.7,58.01-80.76,11-9.21,20.53-13.83,28.56-13.83,6.24,0,11.89,2.83,16.96,8.48,5.05,5.65,7.59,12.79,7.59,21.41,0,13.09-2.39,25.8-7.14,38.14-4.76,12.35-11.76,24.25-20.97,35.7-9.22,11.45-17.4,19.56-24.54,24.32-18.15,12.2-32.73,20.38-43.73,24.54-20.23,7.74-35.1,11.45-44.61,11.16,4.76-17.25,14.73-40.3,29.89-69.16M478.33,416.03c18.14-5.51,29.3-9.32,33.47-11.41l37.03-24.15c9.81-7.44,18.97-19.15,27.44-35.1,8.48-15.96,12.71-32.12,12.71-48.52,0-18.48-5.5-33.83-16.5-46.06-11.01-12.22-23.8-18.34-38.37-18.34-11.31,0-22.24,2.31-32.8,6.91-10.56,4.62-21.05,11.38-31.46,20.3-2.67,2.39-15.17,15.47-37.48,39.27l-34.36,49.97c-11.01,18.44-20.96,38.07-29.89,58.9-5.65,13.39-10.64,30.04-14.94,49.97-4.32,19.93-6.47,37.03-6.47,51.31,0,33.01,7.28,58.89,21.86,77.63,11,14.28,24.38,21.41,40.16,21.41,23.5,0,46.25-9.93,68.27-29.79,35.1-32.01,57.11-64.62,66.03-97.81-4.46-.59-8.47-.9-12.04-.9h-6.24c-5.36,15.4-12.35,29.32-20.97,41.75-8.63,12.43-16.89,22.5-24.77,30.19-7.88,7.69-17.33,14.36-28.33,19.99-5.06,2.67-10.86,3.99-17.4,3.99-10.71,0-19.19-4.15-25.43-12.45-9.53-12.15-14.28-28.31-14.28-48.48,0-27.57,4.91-54.86,14.73-81.84,28.56-5.66,51.9-11.26,70.04-16.77M75.7,564.42c-7.06,0-12.89-2.68-17.49-8.04-4.6-5.35-6.9-13.53-6.9-24.53,0-13.39,5.66-33.62,16.99-60.68,8.26-19.63,22.37-44.09,42.28-73.4,19.91-29.3,40.58-53.32,62.02-72.06,15.93-13.68,33.54-24.99,52.84-33.91,8.58-3.86,18.83-5.8,30.79-5.8,10.41,0,17.91,2.23,22.51,6.69,6.91,7.44,10.38,15.33,10.38,23.65,0,2.67-2.08,13.09-6.24,31.23l-11.6,30.79c-11.97,22.91-19.79,36.89-23.47,41.94-13.5,20.23-25.62,36.14-36.35,47.74-4.91,5.36-26.08,26.33-63.5,62.91-20.56,14.58-32.52,22.76-35.9,24.54-5.52,3.27-11.96,5.8-19.33,7.59-8.9.89-14.57,1.34-17.03,1.34M293.21,265.03c-6.08-1.18-12.47-1.79-19.15-1.79-20.37,0-44.38,5.96-72.05,17.84-20.98,8.93-44,23.06-69.08,42.39-25.09,19.33-50.39,45.5-75.93,78.53-14.9,19.04-29.64,48.34-44.23,87.9-8.51,23.2-12.76,44.32-12.76,63.36,0,13.09,1.68,22.76,5.04,29,4.59,8.33,10.55,14.42,17.89,18.29,3.98,2.08,11.93,3.27,23.85,3.57,14.07-1.19,26.3-3.72,36.7-7.59,28.14-13.67,45.88-23.64,53.22-29.89,32.11-27.07,60.56-55.77,85.33-86.11,8.56-11,15.75-19.33,21.56-24.99-9.22,19.93-15.32,33.9-18.29,41.94-5.07,13.09-9.08,22.75-12.05,29-2.98,6.24-8.19,19.19-15.61,38.82-2.98,11.31-4.46,19-4.46,23.08,0,4.67,1.64,8.46,4.91,11.37,3.28,2.91,8.2,4.37,14.76,4.37,10.26,0,21.23-3.12,32.92-9.37,15.11-8.32,32.07-22.45,50.88-42.39,18.81-19.93,32.21-35.69,40.19-47.29-2.79-3.27-5.85-6.4-9.2-9.37-2.78,3.27-5.71,6.84-8.78,10.7-4.18,5.36-17.41,19.19-39.7,41.5-8.64,8.63-19.22,16.66-31.76,24.1-3.14-2.86-4.71-5.15-4.71-6.87l1.79-4.29c5.65-9.52,11.9-25.36,18.75-47.51,6.84-22.16,14.95-43.94,24.33-65.36,9.37-21.41,20.31-50.11,32.82-86.1l29.47-79.86,3.57-8.92c2.97-9.52,4.91-15.17,5.8-16.96,1.49-3.57,2.24-6.24,2.24-8.03l-1.34-5.38c-4.77-2.08-9.69-3.13-14.75-3.13-3.88,0-9.99.44-18.33,1.33-3.58,2.68-7.16,8.48-10.73,17.4-.89,2.98-2.83,6.99-5.8,12.05-5.47-2.38-11.25-4.16-17.33-5.36M1065.27,248.96c-10.91-12.78-23.98-19.18-39.22-19.18-18.82,0-37.95,7.44-57.37,22.31-28.7,22.01-64.25,63.07-106.69,123.14-7.3,10.71-13.3,19.04-17.97,24.98,12.85-41.38,26.67-79.72,41.43-115.01,14.76-35.29,28.86-74.96,42.3-119.04,7.31-23.82,13.01-41.38,17.11-52.7l25.86-74.6,11.84-29.92,2.19-8.49c-6.14-.29-10.82-.44-14.04-.44-10.52,0-41.07,2.83-91.63,8.48l-1.79,9.36c9.31,3.91,19.77,7.06,31.38,9.46,4.96.9,8.34,2.33,10.12,4.27,1.78,1.96,2.68,4.74,2.68,8.33,0,4.8-2.38,13.81-7.14,27.01l-17.9,51.76-123.58,360.51c-1.46,3.87-3.06,7.74-4.81,11.61l-31.44,79.86c-4.65,11.3-6.98,19.49-6.98,24.54,0,4.47,1.37,7.88,4.12,10.27,2.75,2.37,7.29,3.56,13.67,3.56,5.78,0,10.41-1.28,13.88-3.83,3.47-2.56,7.08-8.39,10.85-17.48,7.3-18.24,21.11-49.65,41.43-94.22,20.32-44.56,34.84-73.13,43.61-85.7,40.66-56.22,70.42-94.14,89.25-113.77,18.83-19.63,36.33-33.47,52.47-41.49,5.38-2.68,10.17-4.02,14.35-4.02,7.78,0,13.9,2.83,18.4,8.48,4.48,5.65,6.72,16.5,6.72,32.57,0,29.15-9.65,72.13-28.93,128.94-17.84,53.19-34.36,93.56-49.58,121.36-.74,1.32-1.44,2.41-2.18,3.67-3.22,5.67-6.34,10.37-9.44,14.89-18.28,26.09-32.79,32.67-32.79,32.67-3.75,16.36,0,21.17,0,21.17,47.68-25.99,78.01-68.17,78.01-68.17l-.12-.12c.97-1.19,1.82-1.98,2.82-3.22,23.15-28.85,43.19-66.4,60.11-112.65,16.92-46.25,25.38-86.34,25.38-120.24,0-26.47-5.46-46.11-16.36-58.9Z"/>
</svg>