<?xml version="1.0" encoding="UTF-8"?>
<svg id="Capa_1" xmlns="http://www.w3.org/2000/svg" version="1.1" viewBox="0 0 593.7 314.3">
  <!-- Generator: Adobe Illustrator 30.5.1, SVG Export Plug-In . SVG Version: 2.1.4 Build 3)  -->
  <g id="Logo_Negro_Relleno">
    <g>
      <path d="M115,169.8h-39.1l-1,.8-6.6-1.5-.1,10.6,1.6.7-.9,2.9.4,1.6-1.3,1.6.2,8.1h3.7l-.7,2.3.8,1.3c2,3,3,5.4,3,7.2l.5,17.9.5.8c.5.8.9,1.7,1.1,2.6l.1.5-2,5.2-.2,5.5,1.4,1.5.1.5-1.1,3.1.6,3.2-.5.8.7.5v.1h.2l1.8,1.2-3.1.2c-.1.7-.1,2-.1,4.4l.2,1.4,3.1,7-.7.4h-3l.5,3.7.1.3-.3,5.4,1.2.4-1.3,6.7.9,3.7-.7.7c-1.8,1.6-3.1,3.2-4.1,4.8l-1.2,2,1.8,1.9-4.1.1,3.1,10.5-1.6,6.4,1.3,1.5-1.2,4,5.3-1.2,12.4.2,1.2-1.5,1.6.5,1.6-.4,1.9,1.5,3.1-.4,4,.3h7.9l.4-1.4,1.6.5c1.6.5,3.1.8,4.4.8l3.3.1v-2.2l5.5,2.1,4.1.2,1.3-1.3,1.5.6c1.3.4,4.1.6,8.1.6h.5l6.6-2.2h2.2l1.6,1.4,10.2-2c5.8-2,10.4-4.5,13.5-7.3,2.4-2.3,4-4.9,4.6-7.5l.6-.9c1-.8,1.6-1.6,1.9-2.2,1.6-3.6,2.7-8.8,3.5-16.1l.1-1.1-.8-1.3.4-3.4-.1-.4c-.2-1.4-.3-2-.4-2l-1.5-2.5h-.1l.1-2.5-.1-.7h0l-.4-2.6-3.2.4h0l2.6-1.8-.6-1-.3-4.2-.2-1.4-3-3.6-1.6,1.6-1.9-4.8-.8-.6c-3.7-2.6-7.6-4.1-11.5-4.6l-1.5-.2v-2.2l2-2.1h2.4l.9-.9,1-.3c1.2,0,3.2-.6,6.2-3.2l1.1-1v-1.4l1.4-2.3,4.4-2.3-1.4-5.1c.1-.6.3-1.6,1.4-2.1l1.2-.6.4-1.3c.6-2,1-4.7,1-7.7v-3.8c-.1-3.5-.3-5.6-.5-6.9l-.4-2.7h-1.5v-2.9c0-1.5-1-3.8-2.9-6.7l-.6-1-1.1-.3c-1.3-.4-2.2-1-2.8-1.9l-3.1-4.4-4,4.1-.4-3.3-4.6-3.9-1.2-.6c-1.7-.5-4.8-1-8.9-1.6l-2.4-.3-.8,1.7-1.1.1c-.8,0-1.5-.1-2.1-.5l-1.4-.5-.3.1-2.8-.8-2.4,2.4-.1-4.4-4.7,2.1-3.1-1h-.5c-.6,0-1.2.1-1.7.1l-2.9.2v1.6h-2.7c-1.6-.2-3-.7-4.1-1.4l-.5-1ZM138.3,276.4c-.4,1-1.9,2.8-3.7,4.9l-.7.6c-2.6,1.7-5.6,2.8-9,3.3h-.3l-4.4-1.1v2.6h-2.5l-1.4-1.3v-1.4l.1-1.4-.4-1.6.6-4.3-.8-5,.6-1.1-.7-1-.1-1.1,1.1-6-.1-9.6,1.6-1.6,9.1.2,5.5,1.7c1.9.2,3.1,1.5,3.9,2.5l.6.8-.8,1.6,2.4,8.7-.8,4.7,2.5,1.2-2.3,3.7ZM116.9,199.4l.2-1.4h1.4c2.3,0,4.9.2,8.1.7l1,.1,1.9-.9,2.2,2.1c2.9,1.8,5,5.3,6.4,10.2l.1,1.2c.1.7.4,2,1.7,4.5l1.3,2.4-1.7.2-1.7,1.4-.3.8c-.2.5-.5,1.3-.8,2.7l-.3,1.2-3.4.3v2.6h-.9v.8l-7.1-.3-.6,1.8-3.2-1.2-.5-.3-.8.1c-.5,0-1.3-.2-1.9-.7l-.9-.7-2.6.1-1.7-1.5.4-1.2c.9-2,1.5-3.7,1.8-5l.2-1-.4-1c-.4-.9-.7-1.9-.8-2.9l-.1-1.1,2.8-2.2.2-11.8Z"/>
      <path d="M224.2,166.9h-13.5c-1.3,0-2.4.1-3,.4l-1.7,1.1-.6-.7-2.9-.5-2.7.3-4.1-.6-3.5.1.1,6-1.8,2.1,1.2,4.9-.1,1,.5.5-1.7,2.5v7.5l.8.9c2.9,3.2,4.4,6.1,4.7,8.7l.5,19.4,1.6,1.6.1,2.9-2.3.3.8,21.7h.8l.2,4.5-2.1,6.3.9,1.2v17.2h2.1l.1,1.7c0,.4-.1.9-.2,1.3l-.4,1.3.3.7-1.5,1.9.3,1.5c.8,3.2,1.7,5.9,2.8,8.1l2,3.9,2.8-2.8.1,3.2h1.2v3.6l1.7.9c1.1.6,1.9,1.3,2.4,2l.8.9c2.1,1.7,4,2.9,5.7,3.6l2,.9,1.3-1.3,2.8,2.8,1.7-1.3h2.8l.7,3.7,4.5-1.2,3.4.3c1.3.6,2.5.9,3.4,1.1l1.7.3.8-.8,4.6.5v-1.8h3.4l3.2,1.9,1.6-.9c.4-.2.8-.3.6-.4l5,1,2.4-.4.7-.9,3.4.4.5-.1c2.4-.6,4-1.1,5-1.4l2.1-.7v-1.9l4.6-.8v-1.9l3.4.7,1.1-.8c1.2-.8,2-1.4,3-2.2l.8-.8c4.5-4.8,7.4-8.8,8.3-11.5l.4-1.2-2.9-5.8,4-.3v-2.4l1.2-.1.3-2.4c.2-1.5.5-4,.6-9.2l-.7-3.8-2.1-4,2.8-.4-1.5-6.6,1.1-5.7-2-6.4.6-2.4,2-1.1-.3-3.5.4-4.6-2.5-.7-.3-5.2h3.1l-1.4-5.8.6-.9-.9-5.3.7-1-.2-1.4c-.1-.8-.3-1.8-.4-3l-.5-6.1-2.3-.8,2.9-3.3,1.8-.4,1.9-1.1.6-1.5.2-2.5,3.2-1.5-.4-3.9.3-.9-.9-5.6h1.6l-.7-3.8-.8-3.3.8-4.3h-8.2l-4.8-2.9-.5,1.7h-23.9l-1.6,2.4-1,.1-4-.7v-1.8h-3.2l-3.9.3-.8,2.1-.2,4.8h1.7l.2,3.6-2,.1,1.1,7.5h.9v2.4l-2,4.2,2.6,1.3.7,1c.8,2.4,1.9,5.6,2.5,6.5l.4.7-.7,4.5h1.9v3.1l-1.1.9.4,1.4-.2,4,1.5,1.2-1.6,5.9,1.2.4-.4,2.7.4.9c.5,1,.7,2.1.7,3.4v1.6l-1.5,1.8c-.6,1-.9,1.6-1,1.9l-.9,1.8,1.9,2.3v2.3l-1.4.2.4,8.7.9,1.1-1.4,8,1.2,1.1-.9,1.1-.2,13.7c-1.6,6.4-4.7,7.7-7.7,7.8l-6.1.9h-4.5l2.2-2.4-1.2-2c-1.5-2.4-2.3-4.6-2.6-6.5v-23.9l-2-7,1.6-1.9-.3-1.7.5-1.9-.2-1.3.3-3.1v-5.8h-3.2l2.7-7.7.3-3.6-.4-1.9.8-10.3-1.1-1.1-.4-5.2h2.2l.9-1.5c.6-1,1.2-1.9,1.8-2.6l.7-.6-.1-1.3.4-2.9-.4-1.5.9-2.8v-4.3l-.5-3.5.5-10.1-4.4,1.7c-.4.1-.7.2-.6.2l-4-1.1-4.9-.1-1.1,2.4-1.7-1.1c-.9-.3-1.8-.7-3.1-1Z"/>
      <path d="M351.7,169.4l-3,.7-4.1-.5-4.4,1.3h-3.1l-2.1-2.4-1.7,1.3-10.4-.1-6.2,2.2v21.8l.8.9c2.4,2.7,3.6,7.4,3.6,14v10.1h1.2v4.5l-1.4,1.7.4,3.3.8,1.8-.5,3.3v1.4l-.5,3.3.3,1.7-.1.2.9,6.2-1,3.4-.1,11.8c0,1.6.3,2.5.5,2.9l1,2.3.4.6v3.1c0,1-.4,1.9-1.1,2.8l-.7.9v3.2l.7.9c.3.4.5.9.5,1.5l-1.8,3.6-.3,1c-.3,2-1.5,3.7-3.6,5.2l-1.3,1,.3,21.1h1.9v1.9h25.5l1-1,6.8,1,3.1-1.6,10.1,1.7,4.5-.1c1.2-.2,3.2-.6,4.5-1.4l.4-.3,8.1,2,2.5-.5,3.1.4,4.2-.8,4.5.8,3.4-.1,1.9-1.3,1.1.5c1.1.5,2.9.8,5.3.8h8.4l4.1-3.2-.3-13.7-.8-1.4,1.2-6.2-.4-1.7.3-1.3c.1-1.7-.4-3.6-1.3-5.2l-.3-.5,1-5.9-.3-2,.1-.4c.5-1.5.8-2.8.8-4v-4.4l-1.2-1c-.9-.7-1-1.3-1-1.7v-1c.1-1,.4-2,.9-3l2-4-3.5-.4,2.5-3.3-1.2-.5,1.2-3.7-4.8.4-.4-.2-5.4-.4-1.3,1.3-3-1.1-1.8.4c-1.1.6-2.7,1.2-5.1,1.9l-1,.3-1.6-1.8h-5.6l-2-1.2-4.9.2-1.8,6.5-.1,6.3.4,1.5c.6,1.1.9,2.3.9,3.3l-.1.8c-.5,2.1-.8,3.7-1,4.9l-.2,1.3.8,1c.3.4.4.9.4,1.3v2l-.3.4c-.4.6-.6,1-.7,1.2l-.4,1.3.2,1.1c0,2-.7,3.2-2.4,3.6l-1.1.5c-2.4,1.7-5,2.7-7.1,3h-6.6v-17l-1.6-5,.9-4.9-1.9-4,.5-3.7,2-.7v-3.9l-.7-3.3h-2.2l1.6-6.3-.7-2.6.6-.7c1.4-1.7,1.5-2.5,1.5-3.5l-.7-7.2.7-3.5-.1-.6c-.2-1.3-.6-2.4-1.2-3.4l-.4-.8,1.2-2.3-1.6-4.7v-1.2l4.2-1.8-4-4.1,2.6-.9.5-1.4c.3-.9.7-1.6,1.1-2.1l1.2-3.2-2.5-2.5,3.2-.1v-3.8l.8-.6.2-1.3c.1-.6.2-1.7.2-3.4v-1.6l-3.3-9.1h-6.4l-2.4,2.7-2.9-.7-2.5-2.1Z"/>
      <path d="M463,170.2l-4.2-.5-4.5,1.3h-3.1l-2-2.3-1.8,1.3-10.4-.2-6.2,2.2v21.8l.8.9c2.4,2.7,3.6,7.4,3.6,14v10.1h1.2v4.5l-1.4,1.7.4,3.3.8,1.8-.5,3.3v1.5l-.5,3.3.3,1.7-.1.2.9,6.3-1,3.3-.1,11.8c0,1.6.3,2.5.5,2.9l1,2.3.4.6v3.1c0,1-.4,1.9-1.1,2.8l-.7.9v3.2l.7.9c.3.4.5.9.5,1.5l-1.6,3.6-.3,1c-.3,2-1.5,3.7-3.6,5.2l-1.3,1,.3,21.1h1.9v1.9h25.5l1-1,6.8,1,3.1-1.6,10.1,1.7,4.5-.1c1.2-.2,3.2-.6,4.5-1.4l.4-.3,8.1,2,2.5-.5,3.1.4,4.2-.8,4.5.8,3.4-.1,1.9-1.3.8.4c.7.4,2.3.9,5.5.9h8.4l4.2-3.1-.3-13.7-.8-1.4,1.2-6.2-.4-1.7.2-1.2c.1-1.8-.3-3.6-1.3-5.2l-.3-.5,1-5.9-.3-2,.2-.4c.5-1.4.8-2.8.8-4v-4.4l-1.2-1c-.9-.7-1-1.3-1-1.7v-.9c.2-1.1.4-2.1.9-3l2-4-3.5-.4,2.5-3.5-1.2-.4,1.3-3.7-4.9.4-.4.1-5.4-.4-1.3,1.3-3.1-1.1-1.7.5c-1.1.6-2.7,1.2-5.1,1.8l-1,.3-1.6-1.8h-5.6l-2-1.2-4.9.2-1.8,6.5-.1,6.3.4,1.5c.6,1.1.9,2.3.9,3.3l-.1.8c-.5,2.1-.8,3.7-1,4.9l-.2,1.3.8,1c.3.4.4.9.4,1.3v2l-.3.4c-.3.5-.6.9-.7,1.2l-.4,1.2.2,1.1c0,2-.7,3.2-2.3,3.6l-1.1.5c-2.4,1.7-5,2.7-7.1,3h-6.6v-17l-1.6-5,.9-4.9-1.9-4,.5-3.7,2-.7v-3.9l-1.2-3.3h-1.7l1.6-6.3-.7-2.6.5-.7c1.4-1.7,1.6-2.6,1.6-3.6l-.7-7.2.7-3.5-.1-.6c-.2-1.3-.6-2.4-1.2-3.4l-.4-.8,1.2-2.3-1.6-4.7v-1.2l4.2-1.8-4-4.1,2.6-.9.5-1.4c.3-.9.7-1.6,1.1-2.1l1.1-3.2-2.5-2.5,3.2-.1v-3.8l.8-.6.2-1.3c.1-.6.2-1.7.2-3.5v-1.6l-3.3-9.1h-6.3l-2.4,2.7-2.9-.7-2.4-2.3-3.2.6Z"/>
      <path d="M.3,132.6l.6-.1-.5-5,2.7,9.2-1.6,6.4,1.3,1.5-1.2,4.1,5.3-1.2,12.4.2,1.2-1.5,1.6.5,1.6-.4,1.9,1.5,15.1-.1.4-1.4,1.6.5c1.6.5,3.1.8,4.4.8l3.2.1v-2.3l5.5,2.1,4.2.2,1.3-1.3,1.5.6c1.3.4,4.2.6,8.1.6h.5l6.6-2.1h2.2l1.6,1.3,10.2-2c5.8-2,10.4-4.5,13.5-7.3,2.4-2.3,4-4.9,4.6-7.5l.6-.9c1.1-.9,1.8-1.8,1.9-2.2,1.6-3.6,2.7-8.8,3.5-16l.1-1.1-.8-1.3.4-3.4-.1-.4c-.2-1.4-.3-1.9-.4-2.1l-1.6-2.4h-.1l.1-2.5-.4-3.3-3.2.4,2.6-1.7c-.1-.2-.3-.6-.7-1l-.3-5.2-3.3-3.9-1.5,1.5-1.9-4.8-.8-.6c-3.7-2.5-7.5-4.1-11.5-4.6l-1.5-.2v-2.2l2-2.2h2.4l.9-.9,1-.3c1.2,0,3.2-.6,6.2-3.2l1.1-1v-1.4l1.4-2.3,4.4-2.3-1.4-5.1c.1-.6.3-1.6,1.4-2.2l1.2-.6.4-1.3c.6-2.1,1-4.7,1-7.7v-3.8c-.1-3.5-.3-5.7-.5-6.9l-.4-2.7h-1.5v-3.1c0-1.5-1-3.8-2.9-6.6l-.6-1-1.1-.3c-1.3-.4-2.2-1-2.8-1.9l-3-4.4-4,4.1-.4-3.3-4.6-3.9-1.2-.6c-1.6-.5-4.7-1-8.9-1.6l-2.4-.3-.7,1.7-1.1.1c-.8,0-1.5-.2-2.1-.5l-1.4-.5-.3.1-2.8-.8-2.4,2.4-.1-4.4-4.7,2.1-3.1-1.1h-.5c-.6,0-1.2.1-1.7.1l-2.9.2v1.4h-2.5c-1.6-.2-3-.7-4.1-1.4l-.8-.5H8.4l-1,.8L.8,3.5l-.2,10.8,1.7.7-.9,2.9.4,1.6-1.3,1.6.2,8.1h3.7l-.7,2.3.8,1.3c2,3,3,5.4,3,7.2l.5,17.9.5.8c.6.8.9,1.7,1.1,2.6l.1.5-2,5.2-.2,5.5,1.4,1.5v.5l-1.1,3.1.6,3-.6,1.2,2.6,1.5-2.9.2c0,.7-.1,2-.1,4.4l.2,1.4,3.1,7-.7.4h-2.9l.5,3.7.1.3-.3,5.4,1.2.4-1.3,6.7.9,3.7-.7.7c-1.7,1.5-3.1,3.1-4,4.7l-1.2,2.1,1.8,1.9-4.1.1.3,6.2ZM70.9,110.8c-.5,1.1-2.2,3.2-3.6,4.9l-.7.6c-2.6,1.7-5.6,2.8-9,3.3l-.3.1-4.4-1.1v2.6h-2.5l-1.4-1.3v-1.3l.1-1.5-.5-1.5.6-4.3-.8-5,.5-1.1-.7-.9-.1-1.1,1.1-6-.1-9.6,1.6-1.6,9.1.2,5.5,1.7c1.9.2,3.2,1.5,3.9,2.5l.6.8-.8,1.6,2.4,8.7-.8,4.7,2.5,1.2-2.2,3.4ZM45.5,59c.9-1.9,1.5-3.7,1.8-5l.2-1-.4-.9c-.4-.9-.7-1.9-.8-2.9l-.2-1.1,2.8-2.2.4-12.1.2-1.4h1.4c2.2,0,4.9.2,8.1.7l1,.2,1.9-.9,2.2,2.1c2.9,1.8,5,5.3,6.4,10.2l.2,1.1c.1.7.4,2.1,1.7,4.5l1.3,2.4-1.6.2-1.7,1.5-.3.8c-.2.5-.5,1.3-.8,2.7l-.3,1.2-3.4.3v2.6h-.9v.8l-7.1-.2-.6,1.7-3.2-1.2-.5-.3-.8.1c-.5,0-1.3-.2-1.9-.7l-.9-.8-2.6.2-1.7-1.5.1-1.1Z"/>
      <path d="M127.6,118.5c-.3,1.9-1.5,3.7-3.6,5.2l-1.3,1,.3,21.1h1.9v1.9l25.5-.1,1-1,6.8,1,3.1-1.6,10.1,1.7,4.6-.1c3.3-.5,4.1-1.2,4.4-1.4l.4-.3,8.2,1.9,2.5-.5,3.1.4,4.2-.8,4.5.8,3.3-.1,1.9-1.3,1,.5c1.1.5,3,.8,5.4.8h8.5l4.1-3.2-.3-13.7-.8-1.4,1.2-6.2-.4-1.7.3-1.2c.1-1.8-.4-3.6-1.3-5.2l-.3-.5,1-5.9-.3-2,.1-.4c.5-1.4.8-2.8.8-4.1v-4.4l-1.2-1c-.9-.7-1-1.3-1-1.7v-.9c.1-1.1.4-2.1.9-3l2-4.1-3.5-.4,2.5-3.4-1.2-.4,1.3-3.7-4.9.4-.4.1-5.4-.4-1.3,1.3-3.1-1.1-1.7.5c-1.2.6-2.8,1.2-5.1,1.9l-1,.3-1.6-1.8h-5.6l-2-1.2-5,.1-1.7,6.4.1,6.5.4,1.5c.6,1.1.9,2.3.9,3.3l-.1.8c-.5,2.1-.8,3.7-1,4.9l-.1,1.3.8,1c.3.4.4.9.4,1.4v2.1l-.3.4c-.3.5-.6.9-.7,1.2l-.5,1.2.2,1.1c.1,2-.7,3.2-2.4,3.6l-1.1.5c-2.5,1.7-5,2.7-7.1,3l-6.6.1v-16.9l-1.6-5,.9-4.9-1.9-4,.5-3.7,2-.7-.5-7.2h-2.4l1.6-6.3-.7-2.6.6-.7c1.1-1.3,1.4-2.1,1.5-2.4l.1-.5-.8-7.8.7-3.5-.1-.6c-.2-1.3-.6-2.4-1.2-3.4l-.4-.8,1.2-2.3-1.6-4.7v-1.2l4.2-1.8-4.1-4.1,2.6-.9.5-1.4c.3-.9.7-1.6,1.1-2.2l1.2-3.2-2.5-2.5,3.2-.1v-3.8l.8-.6.2-1.3c.1-.6.2-1.7.2-3.4v-1.6l-3.3-9.1h-6.4l-2.4,2.7-2.9-.7-2.4-2.2-3,.7-4.1-.4-4.4,1.3h-3.2l-2.3-2.6-1.6,1.5-10.4-.1-6.2,2.2v21.8l.8.9c2.4,2.7,3.6,7.4,3.6,14v10.1h1.2v4.4l-1.4,1.7.4,3.3.8,1.8-.4,2.5v2.2l-.5,3.3.3,1.7-.1.2.9,6.3-1,3.4-.1,11.8c0,1.6.3,2.5.5,2.9l1,2.3.4.6v3.1c0,1-.4,1.9-1.1,2.8l-.7.9v3.2l.7.9c.3.4.5.9.5,1.5l-1.6,3.6-.7.6Z"/>
      <path d="M239.6,128.5c0,1.1-.1,2.6-1,3.3l-.9.8-.1,1.2c-.1.7-.2,1.9-.2,4v5.7l.4,3.2h7.2l3.7,3,1.4-4.1,1.6.3c.9.2,1.8.7,2.5,1.2l.8.6,5.2-.1,4.8-1,.7,1.1h1.8l5.4-.8,13.7,3.1-3-3.3,4.4.3-5.3-5.3v-.7c0-1.8.4-3.4,1.2-4.8l.4-7-1.9-.3v-2.2l1.8-2.1-2.9-3.7-3.5-8.2v-1.4l.9-.1,1.6-1.6,1.5-.4h3l.8-.6,4-.3,1.4,1.1,9.1-.1,2.6-2.5v2.2l1.2.9c.7.6.8,1.6.8,1.8l.1,2.9-.7,1.9-.1.8c-.3,3.6-.8,5.3-1.6,5.9l-2.8,1.7-.2,1.4c-.1.6-.2,1.5-.1,3.4l.6,3.4-.7,1.3.1.9c.1.8.2,1.4.4,1.9l9.7,10.2,1.5-6.6,4.7,6.2,1.1.2c.5.1,1.5.3,3.5.6l3.4-.1,5-1.7v1.7h12.5l.7-.4c1.3-.7,2.7-1.1,4.2-1.1l3.6.1,4.6,1.1v-8.4l-1.3-3.3.8-1.2.5-9.7-3.9-4.5-3.9-7.8c-.2-2.1-.5-3.8-.8-5l-.2-1-2-1.8-.3-1.9,1-2.4-1.5-8.6-.5-1.3c-1.7-2.3-2.6-4.9-2.7-7.9l-.1-3h-2.7l.3-2.1,1.1-1.3.1-.9c.1-.7.3-1.4.6-1.9l.5-.9-.1-1c-.2-2.2-.9-5.2-1.9-8.7l-4.6-26-.3-1c-1.8-3.1-2-4.3-2-5.1l-.1-5.7-.4-1.5c-.7-1.3-1.3-3.4-2-7.3l.3-2.7-3.2-.5,3-.9c-.1-.6-.5-2.1-1.4-3.9l-.4-1.9-1.3-2.9-4.7.7-.9,2.1-2.7-.9-1.1.3-1.7-.6-5,.2-.2-1.2-7.1,1.2v-1l-13.5.4-.7.4-3.7.2v-1.6l-4.2.9-2.6-.4-9.3.1v3.8l-4.9-1.7-.2,4.5-.3,1.7.8.7-2.4,3.4.4.6c-.3,1.3-.6,2.9-.9,4.8v.4l.4,3.1-4.8,4.6,2.7,1.8-.1.4,1.1,1.1v8.3h1l-2.8,2.7-.2.9c-.2,1.1-.6,2-1.1,2.6l-.7,1.4c-.8,3.4-2.8,13.7-8,43.1l-.3.7,1.6,5.8-3,2.8-.2,1.1c-1.3,7.6-2.8,13-4.3,15.7-1.9,2.4-2.6,3.6-2.9,4.2l-1,1.8,2.7,3.5-.4.5h0ZM281.5,75.9l1.3-1.2c1.3-.9,2-2.4,2.1-4.5v-.6l-.8-2.6,5.2-.7-4.3-4.4,1.9-4.8-.3-1.4v-.3c.1-1,.3-1.9.5-2.6l-.1-6.3h2.1v-4.9l1.6-1.6h2.5l.4,5h1.8l-.7,2.2-.1.9c-.1,1.8.4,3.8,1.3,5.6l.2.5-.5,1.9,2.2,14.4,1.2.8c1.2.7,1.4,1.5,1.5,2.1l.5,1.4v6.4l-1.7.3v-.1l-.3.3-.1-.3v.4l-1.2,1.3-14.3.1v-3.6l-1.9-1.3v-2.4h0Z"/>
      <path d="M361.1,106.4l.9.9c.6.6.9,1.4.9,2.8v1.8l.9.6v.9c0,.6-.1,1-.5,1.4l-1.1,1.2.8,3.9,2,5.2c1.8,2.5,2.8,4.1,3.4,5.3l.8.9c1.2,1,3,2.8,5.9,5.8l1.3.8c1.6.5,3.8,1.3,4.8,2.6l.8,1,1.3.2c1.5.2,2.6.6,3.7,1.4,2.2,1.2,5.8,2.2,10.6,3.2l.6.1,1.8-.4.6.3c1.1.6,2.6.9,4.5,1l.6.1,5-1.7.2-1.4,2,1c.3.1.7.4,1.2.6l4.4.6v-.1l4.8,1.2.5-.1c1-.1,2-.3,2.9-.7l.6-.3,1.5.4c.9.1,1.7,0,2.3,0l3-.2v-4l2.9,3,1.6-.2c3.2-.5,5.3-.9,6.6-1.2l2.5-.6v-.8l1.5-.2c3.2-.4,4.8-1.4,5.2-1.7l2.8-1.7.4-.8c.1-.2.3-.6.5-1.1l.4-1.1h2l.7-.6h3v-2.2l2.9-1.5-1.8-3.7.6-1.8-.3-3.4,1-1.5-.5-.5.9-1.1v-8.2l-5.1-.4,5.7-3.9-.9-5.9.3-3.3-.4-4.4.4-6.4h-6.9v.9h-2.6l-2.4-1-4.8.6-.7.6-3.2.4-.1-.6h-1.3l-.2-.9h-5.9l-.9.8c-.8.7-1.7,1.1-2.6,1.1h-2l-.5-.6-8.8-.4.1,6.2.5,2.3-.1,1.2.1,1.2-.3,1.3.4,1c.5,1.2.8,2.6.8,3.8l-.5,2.6.5,2.4h-2.9l1.3,4.7-4.5,6-1.3-1.3-2,.3c-3.8.2-6.6-1.1-8.5-3.2l-.6-.9c-.8-2.1-1.6-3.1-2.5-3.9l-.8-.5v-4.9l1.4-2.9-3.6-6h-.3l2.4-3.1-.8-.8,2.1-2.9-.3-7.1.6-6-.3-2.7-1.4-1.4.1-.8c.1-1,.4-2.6,1-3.9l.3-1.1-.1-.9.3-6.3-.7-2.8.5-2.1v-1.2l-.1-1.5-.6-.7c-.3-.4-.4-.9-.4-1.4v-.7l1.7-1.6-1-9.6-.3-1,1-1.5c.3-.9.7-2,1.2-2.8l.3-.8c.2-.9.7-1.7,1.5-2.2l.7-.8c.6-1.1,2.1-1.9,4.2-2.6l.9-.2,1.4,1.2.9.2c1.3.2,5.4.7,8.2,8.3l.1.3-.7,7,.3,5.4.7.7-.5,3.4,6.9-.3.9-.9c.3-.3.7-.6,1.2-.8l1.4-.7,3.7,2.6,3.8-1.1v1.1h5.6l1-.8,5,1,3.9-.5,2.6.4,3.4-.1v-5.1l2.9-.8-1.8-9.9h-.8v-3.1l2.9-1.3-1.5-7.4h1v-9.1l-1.7-.9c-.8-.4-1.6-1.3-2.2-2.6l-.7-1.5-1.6-.2-.4-.4c-1-1-2.6-1.7-4-1.8l-1.3-.4c-2.6-1.8-6.2-3.3-10.5-4.4l-.8-.2-6.2,1.8-5.2-4.6v2.4l-3.2-1.7-.2.2-1.2-.6c-.7-.4-1.3-.7-1.8-.9l-.6-.2-5.3.6-.1-.1c-.9-.4-1.8-.7-2.5-1l-1.8-.5-1.9,1.9-4.9-.3-2.9-1.5-3.8,1.3-2.4-.3-3.1,1.2-3.6-.6-.6.2c-2,.4-3.5.8-4.4,1.1l-2.2.7v2.7l-5.8-.1-.8.5c-2.4,1.5-3.7,3.2-3.7,5v1.7l-3,.7-.3.6-.5.2c-1.1.3-2.2,1.2-3.4,2.5l-.6,1c-.3.9-.8,1.9-1.4,2.8l-.6,1.5c-.1.8-.4,3.2-1.8,4.9-1.5,3-2.3,6.3-2.4,10v.4l.8,3.1h-1.1v4.2l.6,2.7.6,1.2c.6.8.9,1.7.9,2.5v2.4h-2.3l.4,8.2.8,5-.2.2.6,2.6-1.6,7.3,1.1,1.2c.6.6.9,1.5.9,2.5v2.9h-1.9v11.9l1.2.3-.5,2.7.3.9-1.2,2.6.5,3.9ZM425.1,4.6h0Z"/>
      <path d="M480.1,146.5c1.3-.5,2.9-.9,4.6-1.3l2.1-.5v2.7l3,.2c.5.1,1.1.1,1.9.1h5.4l1-1.1c.8-.9,2.5-1.4,4.8-1.4l3.4,1.8,1.4-.2.4.1c1.4.5,2.6.8,3.7.8l16,.1v-10.1l-2-1.9-.1-.8c0-.4.1-1.3.8-2.1l2.2-2.3-1.7-1.6.9-1.1v-5.4h-2.3l-1.3-4.1h-4l2.5-2.5-.2-1.3,1.3-2.3v-4.4l-.8-.9.9-1.1v-1.2c0-1.2-.2-1.9-.5-2.6l-.2-.3.7-13.9,2.8-.1,9,16.2c.9,2.3,1.6,3.6,2,4.4l.9,1.7h1.9v4h2.2l-.4,4.1h.9l.1,1.6c.2,3.7.4,6.1.6,7.6l.3,2.8h3.1l-2.6,2.7.6,2.9-1.5.2.5,5.2-.1,1.2.1,2.8,3.6.8,1-.3,1.8,1.1,8.8.9,1.9-.6,7.2.6,1.8-1.2h1.5l1.2.8,1.9-2.8,2.5,1c-.6,1.5-2.1,2.1-2.5,2.1h0l12.6.1,3-2.8,2.1-3.1-1.7-2.3.4-1.3-.5-2.4,2.7-1.2v-9.6l-1.4-1c-2.2-1.6-4.4-4-6.2-6.9-.9-2.3-1.6-3.8-2-4.7l-1.5-1.8-2.7-4.6h-2.3l.6-5.9-1.4-1.1c-.2-.1-.4-.3-1.1-.9l-1.4-.9-.4-1.6c0-.1,0-.3.1-.4l.4-1.4-.8-1.2c-.5-.7-.8-1.5-.9-2.4-.3-1.5-.8-2.3-1-2.7l-1-1.4h-2.5l1-4.5h-5.6l3.2-3.2-3.3-8.9,3.6-5.7c3-5.5,4.6-8.2,6-9.8,1.2-2.2,2.2-3.9,3-4.9l.5-1c.5-1.7,1.2-2.9,2-3.8l.6-.6.2-.8c.2-1.1.8-2.6,1.9-3.4l.9-1c1-1.8,2.4-3.8,4.2-5.8l1.1-1.2-.2-.7.2-.5c.3-.8,1-2.8,2.2-3.4l1.8-.9V8.9c0-.6,0-1.1-.1-1.6l-.5-2.7h-2.7l-3.4,1.1-.6-.3c-1.1-.5-2.4-.7-4.7-.7l-1.3.3c-1,.5-2.6.9-5.1,1.2l-.4.1-4.6-1.4-17-.2c-1.3,0-2.2.1-2.9.1l-2.4.2-1.2,7.8,1.5,2.5-1.8,1.8.7,8.4-.9,6.4.7,1.8-.2.6c-.7,1.8-2.8,5.4-6.3,11l-1.4,2.2,2.7,2.6-3,.1-.2,1.9-2.3-.4-1.2,1.7c-.2.3-.4.7-.6,1l-.4,4.5-1.3.2c-1.4.5-2.5,1.3-3.3,2.3l-1.2,1.4-3.2-3.2,1.1-1.7-.6-13.7,1.7-8.9,3-7-1.6-24.2-4,1-2.2-.5-4.8,1.7c-.2-.1-.4-.1-.6-.2l-2.9-1.3-1.1.2v.6h-.2v1h-5l-.1-.5-6.1-1.7-22.5.7.4,3.5.2,3.6h-2.3l.3,3.4.4,1.9,1,1-.1,1.1-1.4,1.9.1,4.9,1,2.6c1.3,2.4,2.4,4.1,3.9,5.3l1,.6-.6,2.1.3,6h.6l-.8,6.3.7,1.3-.9,4,1.3,2.9-.9,2.4c-.1.3-.2,1-.2,2.1v14.1l1.5.9c1.1.7,1.3,1.4,1.3,1.9v2.4l.2.3-1.8,2.1.9,5.8v.8l-2.4,2.1.9,4.7-.2.8.8,6.4-.4,2.2,1.5,1.5-.1,3.4-.6,1.3c-.2,1-.7,1.8-1.2,2.3l-.7.6-.2.9c-.7,3-1.4,5.3-2,6.4l-1.8,2.5-.5,1.2c-.1.5-.2,1.1-.2,1.9l-.2,1.5,2,2-.4,2.1.4,1.5-1.3,2.2.3,1.7-.8,1.9.2.8-1.2,6.7,5.1-2.4Z"/>
    </g>
  </g>
</svg>