<?xml version="1.0" encoding="UTF-8"?>
<svg id="Capa_1" xmlns="http://www.w3.org/2000/svg" version="1.1" viewBox="0 0 850.5 414.5">
  <!-- Generator: Adobe Illustrator 30.5.1, SVG Export Plug-In . SVG Version: 2.1.4 Build 3)  -->
  <defs>
    <style>
      .st0 {
        isolation: isolate;
        opacity: .4;
      }
    </style>
  </defs>
  <path class="st0" d="M426.2,396.3c-67.8,0-125.3-29.1-146.3-69.7,11.8,49.9,72.7,87.9,146.2,87.9s133.6-37.5,146-86.9c-21.3,40.1-78.6,68.7-145.9,68.7h0Z"/>
  <path class="st0" d="M429.8,375c78.4,0,141.9-47.2,141.9-105.4,0-5.1-.6-10-1.6-15-8-41.5-48.4-75.2-101.5-86.4,46.1,14.2,79,51.9,79,96.3,0,56.5-53.3,102.4-119.1,102.4s-119.1-45.8-119.1-102.4c0-41.9,29.3-77.9,71.2-93.7-41.4,11.4-73.7,36.7-86.5,68.3-3.9,9.7-6.1,19.9-6.1,30.5-.1,58.3,63.4,105.4,141.8,105.4h0Z"/>
  <g>
    <polygon points="706.8 252.8 784.9 346.6 767.9 346.6 696.4 260.6 706.8 252.8"/>
    <g>
      <path d="M63.2,321.4c12,5.3,24,8.1,37.2,8.1,20.4,0,42-8.1,59.9-20.6l21.9,11.1c-25.2,17.6-53.5,28.7-81.9,28.7-53.2,0-100.3-34.6-100.3-74.6,0-42.7,47.1-76.7,100.3-76.7,29.6,0,59.1,11.6,82.7,30.2l-119.8,93.8h0ZM154.7,227.7c-12.8-7.5-37.2-15.4-54.3-15.4-39.6,0-74.7,30-74.7,61.7,0,12.8,11.6,27.3,22.4,36.9l106.6-83.2Z"/>
      <path d="M344.6,201.7l-60,72.9,66.1,73.1h-27.4l-53.6-61.1-50.4,61.1h-26.6l61.2-73.1-61.6-72.9h22.2l54.3,61,51.1-61h24.7Z"/>
      <path d="M626.6,346.6h-15.8v-132.3h15.9v132.3h-.1Z"/>
      <path d="M674.2,298.1v49.6h-16.2v-211.4h16.2v131.6l96-77h22.6l-118.3,95.4-.3,11.8h0Z"/>
      <path d="M434.6,186.5c-45.4,0-85.9,36.7-85.9,82.5,0,42.9,40.6,79.9,85.9,79.9,48.1,0,87.3-37,87.3-79.9,0-45.7-39.2-82.5-87.3-82.5ZM435.7,332.4c-37.6,0-68.1-28.7-68.1-64.1s30.4-64.1,68.1-64.1,68.1,28.7,68.1,64.1c.1,35.5-30.4,64.1-68.1,64.1Z"/>
      <g>
        <path d="M581.9,346.6c-55.5,0-49.4-47-49.4-47v-137h16.5v55.7h36.5v16.4h-36.5v64.8s-6,30.9,32.9,30.9v16.2h0Z"/>
        <rect x="530.4" y="218.3" width="56.9" height="16.4"/>
      </g>
      <path d="M626.6,182.1c0,4.3-3.6,8-8,8s-7.9-3.6-7.9-8,3.6-8,7.9-8,8,3.5,8,8Z"/>
    </g>
  </g>
  <g>
    <path d="M850.4,301.5v6.1h-24.2c-10.2,0-18.7,7-18.7,17.2,0,9.2,8.4,16.2,18.7,16.2h24.2v6.2h-47.5v-6.2h5.6c-4.3-4-7.3-9.9-7.3-16.2,0-13.7,10.7-23.3,24.3-23.3h24.9Z"/>
    <path d="M803.5,236.8h47v6.1h-8.3c5.1,4.5,8.3,11.1,8.3,18.6,0,12.8-11.2,24.3-24.1,24.3-13.8,0-24.9-11.4-24.9-24.3,0-7.5,3.1-14,8.3-18.6h-6.2v-6.1h-.1ZM826.2,243.1c-10.3,0-18.6,8.3-18.6,18.6,0,9.5,8.3,18.1,18.6,18.1,9.6,0,17.8-8.5,17.8-18.1s-7.7-18.6-17.8-18.6Z"/>
    <path d="M850.4,200.5c0,21.3-18,21.3-18,21.3h-52.6v-6.3h21.4v-14h6.4v14h24.9s11.8,0,11.8-15h6.1,0Z"/>
  </g>
  <g>
    <path d="M535.5,0s67.1,81-5.8,124c-57,33.6-73.3,33.6-88,123.9,0,0-46.1-72.5-10.2-111.7,35.8-39.1,83.3-44.2,99.1-77C546.9,25,535.5,0,535.5,0h0Z"/>
    <path d="M468.1,15.1s46.2,55.9-3.9,85.5c-39.3,23.2-50.5,23.3-60.8,85.5,0,0-31.8-50-7.1-77s57.4-30.4,68.3-53.1c11.4-23.7,3.5-40.9,3.5-40.9Z"/>
    <path d="M415.4,5.3s42.3,42,3.7,70.2c-30.3,22.1-39.5,23.1-42.8,74.8,0,0-30-38.3-12-62.4s44.6-29.6,51.6-48.9c7.4-20.2-.5-33.7-.5-33.7h0Z"/>
  </g>
</svg>