<?xml version="1.0" encoding="UTF-8"?>
<svg id="Capa_1" xmlns="http://www.w3.org/2000/svg" version="1.1" viewBox="0 0 373 68.05">
  <!-- Generator: Adobe Illustrator 30.5.1, SVG Export Plug-In . SVG Version: 2.1.4 Build 3)  -->
  <defs>
    <style>
      .st0 {
        fill: #050006;
      }
    </style>
  </defs>
  <g>
    <path class="st0" d="M10.2,11.26v2.16c0,.35.12.64.36.88.24.24.54.35.88.35h13.95c.34,0,.64.13.88.37.24.24.36.53.36.88v7.1c0,.34-.12.63-.36.87-.24.24-.53.36-.88.36h-13.95c-.34,0-.64.12-.88.36-.24.24-.36.54-.36.87v1.96c0,.35.12.64.36.88.24.24.54.35.88.35h16.01c.34,0,.64.12.87.35.24.25.36.54.36.88v7.1c0,.34-.12.63-.36.87-.24.24-.53.36-.87.36H1.24c-.34,0-.64-.12-.87-.36-.24-.24-.36-.53-.36-.87V1.8c0-.34.12-.63.36-.88.23-.24.53-.35.87-.35h26.21c.34,0,.64.12.87.35.24.24.36.54.36.88v6.99c0,.35-.12.64-.36.88-.24.24-.53.35-.87.35H11.43c-.34,0-.64.12-.88.37-.24.24-.36.53-.36.87Z"/>
    <path class="st0" d="M44.59,18.62L31.67,2.05c-.21-.27-.25-.58-.16-.93.11-.34.33-.52.67-.52h9.89c.34,0,.7.11,1.08.31.38.21.67.45.88.72l6.44,9.41c.21.28.45.42.72.42s.51-.14.72-.42c1.1-1.54,2.19-3.13,3.27-4.75,1.08-1.63,2.14-3.2,3.17-4.71.21-.28.5-.51.88-.69.37-.19.73-.29,1.08-.29h9.84c.41,0,.65.18.72.52.07.34,0,.65-.21.93l-12.82,16.57c-.21.28-.31.6-.31.98s.1.7.31.98l12.56,16.15c.21.28.25.59.13.95-.12.36-.35.54-.7.54h-9.78c-.34,0-.7-.11-1.08-.31-.38-.2-.67-.44-.88-.72l-6.18-9.01c-.21-.27-.45-.41-.72-.41s-.52.14-.72.41l-6.18,9.01c-.2.28-.5.52-.87.72-.38.21-.74.31-1.08.31h-9.78c-.35,0-.57-.18-.67-.54-.1-.36-.05-.67.15-.95l12.57-16.15c.21-.28.31-.6.31-.98s-.1-.7-.31-.98Z"/>
    <path class="st0" d="M99.28,10.03h-7.21c-.34,0-.64.12-.87.37-.24.24-.36.53-.36.87v25.72c0,.34-.11.63-.34.87-.22.24-.52.36-.9.36h-7.72c-.35,0-.64-.12-.88-.36-.24-.24-.36-.53-.36-.87V11.26c0-.34-.11-.63-.33-.87-.22-.24-.53-.37-.9-.37h-7.31c-.34,0-.64-.12-.88-.35-.24-.24-.36-.53-.36-.88V1.8c0-.34.12-.63.36-.88.24-.24.54-.35.88-.35h27.19c.37,0,.67.12.9.35.22.24.34.54.34.88v6.99c0,.35-.11.64-.34.88-.22.24-.52.35-.9.35Z"/>
    <path class="st0" d="M113.48,38.22h-7.71c-.35,0-.64-.12-.88-.36-.24-.24-.36-.53-.36-.87V1.8c0-.34.12-.63.36-.88.24-.24.53-.35.87-.35h16.01c1.99,0,3.83.33,5.51,1,1.68.67,3.12,1.6,4.3,2.8,1.19,1.2,2.11,2.62,2.78,4.27.67,1.64,1,3.46,1,5.45,0,1.1-.13,2.19-.39,3.27-.26,1.08-.63,2.1-1.11,3.06-.48.96-1.05,1.82-1.7,2.6-.65.77-1.39,1.42-2.21,1.93-.28.21-.46.45-.54.74-.09.3-.03.58.18.85,1.3,1.72,2.68,3.49,4.12,5.3,1.45,1.82,2.73,3.48,3.86,4.99.21.27.26.58.16.9-.11.33-.33.49-.67.49h-9.58c-.34,0-.7-.09-1.1-.28-.4-.19-.7-.42-.9-.69-1.1-1.45-2.18-2.91-3.26-4.38-1.07-1.48-2.14-2.97-3.2-4.48-.21-.27-.5-.51-.87-.7-.38-.18-.73-.28-1.08-.28h-1.13c-.34,0-.63.12-.87.36-.24.24-.36.53-.36.88v8.34c0,.34-.12.63-.36.87-.24.24-.53.36-.88.36ZM115.95,17.95h5.43c.41,0,.84-.08,1.28-.23.45-.16.85-.39,1.23-.72.37-.33.68-.73.92-1.21.24-.48.36-1.04.36-1.7,0-.34-.06-.75-.18-1.21-.12-.46-.32-.9-.61-1.34-.29-.43-.68-.79-1.18-1.08-.5-.29-1.1-.44-1.82-.44h-5.43c-.34,0-.63.12-.87.37-.24.24-.36.53-.36.87v5.45c0,.34.12.63.36.88.24.24.53.36.87.36Z"/>
    <path class="st0" d="M153.44,1.75c.14-.31.37-.58.69-.8.33-.22.68-.34,1.05-.34h7.21c.35,0,.68.12,1,.34.33.22.56.49.7.8l15.04,34.98c.14.31.11.64-.08.98-.19.34-.56.51-1.11.51h-8.8c-.37,0-.73-.11-1.05-.33-.32-.22-.57-.49-.74-.8l-1.39-3.08c-.17-.31-.42-.58-.74-.8-.33-.22-.66-.33-1.01-.33h-10.86c-.37,0-.73.11-1.05.33-.32.22-.56.49-.69.8l-1.44,3.08c-.14.31-.37.58-.69.8-.33.23-.66.33-1,.33h-8.86c-.17,0-.36-.03-.54-.11-.19-.07-.34-.17-.46-.31-.12-.14-.2-.3-.24-.52-.03-.21.02-.44.16-.72L153.44,1.75ZM156.48,24.12h4.58c.34,0,.6-.11.75-.33.16-.22.14-.49-.02-.79-.35-.86-.76-1.86-1.24-3.01-.48-1.15-.93-2.22-1.34-3.21-.14-.31-.29-.47-.46-.47s-.32.16-.46.47l-2.57,6.22c-.14.31-.14.58,0,.79.13.22.39.33.77.33Z"/>
    <path class="st0" d="M217.14,28.24c-1,1.61-2.1,3.07-3.3,4.39-1.2,1.31-2.55,2.43-4.04,3.35-1.49.92-3.15,1.64-4.97,2.15-1.82.51-3.83.77-6.02.77-2.75,0-5.33-.52-7.73-1.55-2.4-1.03-4.5-2.41-6.3-4.17-1.8-1.75-3.22-3.8-4.25-6.17-1.03-2.36-1.55-4.89-1.55-7.57s.52-5.19,1.55-7.56c1.03-2.37,2.45-4.42,4.25-6.17,1.8-1.75,3.9-3.14,6.3-4.17,2.4-1.03,4.98-1.54,7.73-1.54,2.26,0,4.3.26,6.13.77,1.82.51,3.46,1.23,4.94,2.16,1.47.93,2.8,2.05,3.99,3.37,1.19,1.32,2.28,2.77,3.28,4.35.17.27.21.56.1.87-.1.31-.31.53-.62.67l-7.31,2.88c-.35.13-.69.13-1.03,0-.34-.14-.6-.34-.77-.63-1-1.57-2.2-2.78-3.61-3.62-1.4-.84-3.11-1.26-5.09-1.26-1.3,0-2.54.27-3.68.83-1.15.54-2.16,1.28-3.01,2.19-.86.91-1.53,1.97-2.01,3.17-.48,1.2-.72,2.44-.72,3.71s.24,2.56.72,3.74c.48,1.19,1.15,2.23,2.01,3.12.86.9,1.86,1.62,3.01,2.17,1.15.55,2.38.83,3.68.83,1.88,0,3.59-.46,5.12-1.36,1.53-.91,2.73-2.08,3.63-3.52.17-.28.42-.48.75-.62.32-.13.66-.13,1,0l7.31,2.88c.31.14.52.35.62.64.11.29.07.59-.1.9Z"/>
    <path class="st0" d="M245.41,10.03h-7.21c-.34,0-.63.12-.87.37-.24.24-.36.53-.36.87v25.72c0,.34-.11.63-.33.87-.23.24-.53.36-.9.36h-7.72c-.34,0-.64-.12-.88-.36-.24-.24-.36-.53-.36-.87V11.26c0-.34-.11-.63-.33-.87-.23-.24-.52-.37-.9-.37h-7.31c-.35,0-.63-.12-.87-.35-.24-.24-.36-.53-.36-.88V1.8c0-.34.12-.63.36-.88.24-.24.53-.35.87-.35h27.19c.37,0,.67.12.9.35.22.24.34.54.34.88v6.99c0,.35-.11.64-.34.88-.22.24-.52.35-.9.35Z"/>
    <path class="st0" d="M248.34,43.68c-.31.13-.62.12-.95-.06-.33-.17-.56-.41-.7-.72l-1.13-2.67c-.17-.31-.19-.63-.05-.93.14-.31.36-.53.67-.67.14-.07.26-.12.36-.15.1-.03.2-.07.31-.11.62-.27.65-.65.11-1.13-1-.87-1.55-2.08-1.65-3.66-.03-.72.07-1.41.31-2.09.24-.67.59-1.25,1.06-1.75.46-.49,1.01-.89,1.65-1.18.63-.29,1.31-.45,2.04-.49,1.33-.07,2.49.29,3.47,1.08.98.79,1.62,1.84,1.93,3.14.11.31.17.64.21,1,.04.35.05.73.05,1.1,0,.93-.17,1.86-.51,2.8-.34.95-.83,1.83-1.46,2.65-.64.83-1.44,1.57-2.4,2.24-.96.67-2.06,1.19-3.3,1.57Z"/>
    <path class="st0" d="M281.55,25.31c1.86,1.2,3.69,2.14,5.51,2.83,1.82.69,3.52,1.03,5.1,1.03s2.66-.22,3.45-.64c.79-.43,1.19-1.08,1.19-1.92,0-.45-.17-.8-.52-1.06-.34-.26-.79-.48-1.36-.64-.57-.17-1.23-.31-1.98-.41-.76-.11-1.53-.24-2.32-.42-.75-.13-1.64-.29-2.65-.49-1.01-.19-2.05-.46-3.12-.83-1.06-.35-2.12-.81-3.17-1.36-1.04-.55-1.98-1.25-2.81-2.11-.82-.86-1.49-1.88-1.98-3.06-.5-1.19-.75-2.58-.75-4.19,0-2.36.46-4.32,1.39-5.87.92-1.54,2.1-2.77,3.52-3.68,1.43-.91,3.01-1.54,4.77-1.9,1.75-.36,3.45-.54,5.1-.54,2.88,0,5.47.42,7.75,1.26,2.28.84,4.47,2.07,6.56,3.68.27.24.43.53.46.88.04.34-.05.65-.26.93l-4.02,5.71c-.21.28-.48.45-.83.52-.34.07-.65,0-.92-.21-1.75-1.1-3.38-1.88-4.89-2.34-1.51-.46-2.9-.7-4.17-.7-.38,0-.82.02-1.31.03-.5.01-.97.08-1.42.21-.44.12-.82.32-1.1.59-.29.28-.44.65-.44,1.13s.36.91,1.08,1.29c.72.38,1.55.7,2.47.98.93.27,1.82.48,2.68.64.86.15,1.41.25,1.65.28,1.24.24,2.59.59,4.07,1.06,1.48.46,2.86,1.15,4.15,2.05,1.28.91,2.36,2.1,3.24,3.55.87,1.46,1.31,3.29,1.31,5.48,0,2.06-.36,3.84-1.08,5.32-.72,1.5-1.72,2.72-3.01,3.68-1.29.96-2.83,1.67-4.64,2.14-1.8.46-3.8.69-6,.69-1.78,0-3.45-.15-5-.44-1.54-.29-2.99-.69-4.33-1.2-1.33-.52-2.58-1.13-3.73-1.83-1.15-.7-2.21-1.45-3.17-2.24-.28-.21-.43-.49-.46-.85-.03-.36.05-.68.26-.95l3.96-5.71c.21-.27.49-.44.82-.52.35-.07.66-.01.93.16Z"/>
    <path class="st0" d="M320.63,33.28c0,.72-.14,1.4-.41,2.06-.27.65-.65,1.21-1.13,1.7-.48.48-1.05.85-1.7,1.13-.65.28-1.34.41-2.06.41s-1.4-.13-2.03-.41c-.64-.28-1.2-.65-1.68-1.13-.48-.48-.86-1.05-1.13-1.7-.27-.65-.41-1.34-.41-2.06s.14-1.39.41-2.01c.27-.62.65-1.16,1.13-1.65.48-.48,1.04-.85,1.68-1.13.63-.28,1.31-.41,2.03-.41s1.41.13,2.06.41c.65.28,1.22.65,1.7,1.13.48.48.86,1.03,1.13,1.65.27.62.41,1.29.41,2.01Z"/>
    <path class="st0" d="M335.36,1.75c.14-.31.37-.58.69-.8.33-.22.68-.34,1.06-.34h7.21c.34,0,.67.12,1,.34.33.22.56.49.7.8l15.04,34.98c.13.31.11.64-.08.98-.19.34-.56.51-1.11.51h-8.81c-.37,0-.73-.11-1.05-.33-.32-.22-.57-.49-.75-.8l-1.39-3.08c-.17-.31-.42-.58-.74-.8-.32-.22-.66-.33-1-.33h-10.86c-.38,0-.73.11-1.06.33-.32.22-.56.49-.69.8l-1.44,3.08c-.14.31-.37.58-.7.8-.33.23-.66.33-1,.33h-8.86c-.18,0-.35-.03-.54-.11-.19-.07-.34-.17-.46-.31-.12-.14-.2-.3-.23-.52-.03-.21.02-.44.16-.72l14.93-34.83ZM338.4,24.12h4.58c.34,0,.59-.11.75-.33.15-.22.14-.49-.03-.79-.34-.86-.75-1.86-1.23-3.01-.48-1.15-.93-2.22-1.34-3.21-.14-.31-.29-.47-.46-.47s-.32.16-.46.47l-2.58,6.22c-.14.31-.14.58,0,.79.14.22.4.33.78.33Z"/>
    <path class="st0" d="M373,33.28c0,.72-.14,1.4-.41,2.06-.27.65-.65,1.21-1.13,1.7-.48.48-1.05.85-1.7,1.13s-1.34.41-2.06.41-1.4-.13-2.03-.41-1.19-.65-1.68-1.13c-.48-.48-.86-1.05-1.13-1.7-.27-.65-.41-1.34-.41-2.06s.14-1.39.41-2.01c.27-.62.65-1.16,1.13-1.65.48-.48,1.04-.85,1.68-1.13.64-.28,1.31-.41,2.03-.41s1.41.13,2.06.41c.65.28,1.22.65,1.7,1.13.48.48.86,1.03,1.13,1.65.27.62.41,1.29.41,2.01Z"/>
  </g>
  <g>
    <polygon class="st0" points="19.74 55.76 19.28 55.76 19.28 56.21 19.28 64.6 14.04 55.98 13.9 55.76 13.65 55.76 12.28 55.76 11.82 55.76 11.82 56.21 11.82 67.42 11.82 67.88 12.28 67.88 13.23 67.88 13.68 67.88 13.68 67.42 13.68 59.06 18.93 67.66 19.06 67.88 19.32 67.88 20.69 67.88 21.14 67.88 21.14 67.42 21.14 56.21 21.14 55.76 20.69 55.76 19.74 55.76"/>
    <path class="st0" d="M35.96,56.03l-.12-.28h-1.68l-.12.28-4.58,11.21-.26.63h2.06l.11-.29,1.1-2.84h5.07l1.16,2.85.12.28h2.18l-.27-.63-4.77-11.21ZM36.82,63h-3.66l1.78-4.58,1.87,4.58Z"/>
    <polygon class="st0" points="46.81 55.76 46.35 55.76 46.35 56.21 46.35 57.05 46.35 57.51 46.81 57.51 49.95 57.51 49.95 67.42 49.95 67.88 50.4 67.88 51.41 67.88 51.87 67.88 51.87 67.42 51.87 57.51 55.02 57.51 55.48 57.51 55.48 57.05 55.48 56.21 55.48 55.76 55.02 55.76 46.81 55.76"/>
    <path class="st0" d="M71.64,55.76h-.46v7.18c0,.68-.02,1.39-.26,1.92-.21.46-.55.82-1.01,1.07-.44.23-.96.36-1.52.36-.48,0-.95-.09-1.35-.27-.43-.19-.77-.46-1.01-.82-.4-.6-.44-1.35-.44-2.26v-7.18h-1.97v7.54c0,.73.1,1.4.31,1.98.21.59.53,1.1.94,1.52.41.41.93.73,1.52.94.59.21,1.26.31,1.99.31,1.44,0,2.65-.44,3.49-1.28.84-.84,1.28-2.04,1.28-3.47v-7.54h-1.51Z"/>
    <path class="st0" d="M90.93,66.35c-.08-.42-.13-.92-.18-1.45-.09-.94-.19-1.9-.47-2.53-.15-.33-.37-.6-.67-.81.3-.18.55-.39.75-.62.45-.53.68-1.21.68-2.03,0-1.09-.46-1.96-1.33-2.5-.86-.54-1.93-.65-2.67-.65h-4.23v12.12h1.92v-5.41h2.2c1.03,0,1.32.23,1.48.46.23.34.29.92.37,1.84.01.15.02.31.04.47.05.77.11,1.64.46,2.38l.12.26h2.49l-.7-.76c-.06-.06-.16-.24-.26-.76ZM89.06,59.02c0,.65-.2,1.08-.62,1.34-.38.24-.94.35-1.71.35h-2v-3.21h2.08c.77,0,1.29.09,1.65.3.26.14.6.43.6,1.22Z"/>
    <path class="st0" d="M105.58,56.03l-.12-.28h-1.68l-.12.28-4.58,11.21-.26.63h2.06l.11-.29,1.1-2.84h5.07l1.16,2.85.12.28h2.18l-.27-.63-4.77-11.21ZM106.44,63h-3.66l1.78-4.58,1.87,4.58Z"/>
    <polygon class="st0" points="120.66 66.13 120.66 56.21 120.66 55.76 120.2 55.76 119.19 55.76 118.74 55.76 118.74 56.21 118.74 67.42 118.74 67.88 119.19 67.88 125.84 67.88 126.3 67.88 126.3 67.42 126.3 66.59 126.3 66.13 125.84 66.13 120.66 66.13"/>
    <polygon class="st0" points="145.05 55.76 144.74 55.76 144.63 56.04 141.03 65 137.39 56.04 137.28 55.76 136.97 55.76 135.3 55.76 134.85 55.76 134.85 56.21 134.85 67.42 134.85 67.88 135.3 67.88 136.25 67.88 136.71 67.88 136.71 67.42 136.71 59.37 140.08 67.6 140.19 67.88 140.5 67.88 141.49 67.88 141.8 67.88 141.92 67.6 145.26 59.38 145.26 67.42 145.26 67.88 145.72 67.88 146.72 67.88 147.17 67.88 147.17 67.42 147.17 56.21 147.17 55.76 146.72 55.76 145.05 55.76"/>
    <polygon class="st0" points="158.9 66.13 158.9 62.47 163.89 62.47 164.34 62.47 164.34 62.01 164.34 61.17 164.34 60.72 163.89 60.72 158.9 60.72 158.9 57.51 164.11 57.51 164.56 57.51 164.56 57.05 164.56 56.21 164.56 55.76 164.11 55.76 157.44 55.76 156.98 55.76 156.98 56.21 156.98 67.42 156.98 67.88 157.44 67.88 164.34 67.88 164.79 67.88 164.79 67.42 164.79 66.59 164.79 66.13 164.34 66.13 158.9 66.13"/>
    <polygon class="st0" points="181.65 55.76 181.19 55.76 181.19 56.21 181.19 64.6 175.94 55.98 175.81 55.76 175.56 55.76 174.19 55.76 173.73 55.76 173.73 56.21 173.73 67.42 173.73 67.88 174.19 67.88 175.13 67.88 175.59 67.88 175.59 67.42 175.59 59.06 180.84 67.66 180.97 67.88 181.23 67.88 182.6 67.88 183.05 67.88 183.05 67.42 183.05 56.21 183.05 55.76 182.6 55.76 181.65 55.76"/>
    <polygon class="st0" points="191.76 55.76 191.3 55.76 191.3 56.21 191.3 57.05 191.3 57.51 191.76 57.51 194.9 57.51 194.9 67.42 194.9 67.88 195.35 67.88 196.36 67.88 196.82 67.88 196.82 67.42 196.82 57.51 199.97 57.51 200.43 57.51 200.43 57.05 200.43 56.21 200.43 55.76 199.97 55.76 191.76 55.76"/>
    <polygon class="st0" points="210.67 66.13 210.67 62.47 215.65 62.47 216.11 62.47 216.11 62.01 216.11 61.17 216.11 60.72 215.65 60.72 210.67 60.72 210.67 57.51 215.87 57.51 216.33 57.51 216.33 57.05 216.33 56.21 216.33 55.76 215.87 55.76 209.2 55.76 208.74 55.76 208.74 56.21 208.74 67.42 208.74 67.88 209.2 67.88 216.1 67.88 216.56 67.88 216.56 67.42 216.56 66.59 216.56 66.13 216.1 66.13 210.67 66.13"/>
    <polygon class="st0" points="239.29 66.13 239.29 62.47 244.27 62.47 244.73 62.47 244.73 62.01 244.73 61.17 244.73 60.72 244.27 60.72 239.29 60.72 239.29 57.51 244.49 57.51 244.95 57.51 244.95 57.05 244.95 56.21 244.95 55.76 244.49 55.76 237.82 55.76 237.37 55.76 237.37 56.21 237.37 67.42 237.37 67.88 237.82 67.88 244.72 67.88 245.18 67.88 245.18 67.42 245.18 66.59 245.18 66.13 244.72 66.13 239.29 66.13"/>
    <path class="st0" d="M261.23,62.2c-.76-.67-1.78-.98-2.77-1.29-.86-.27-1.68-.52-2.28-.98-.32-.25-.46-.54-.46-.96,0-.52.22-.92.67-1.2.41-.26.99-.4,1.61-.4s1.06.1,1.38.31c.35.22.54.57.59,1.06l.04.41h1.92v-.46c-.03-1.06-.49-1.9-1.35-2.44-.85-.52-1.9-.63-2.62-.63-1.09,0-2.09.28-2.82.78-.89.61-1.35,1.53-1.35,2.65,0,.55.12,1.04.36,1.47.21.38.52.71.93.99.71.5,1.61.78,2.48,1.06.74.24,1.44.46,1.94.78.49.32.7.68.7,1.19,0,.56-.24.98-.74,1.29-.44.27-1.07.43-1.73.43s-1.24-.15-1.63-.42c-.43-.3-.64-.74-.66-1.34v-.44h-2.02l.05.5c.11,1.16.57,2.06,1.37,2.66.72.54,1.67.81,2.85.81s2.23-.3,3.01-.83c.94-.65,1.44-1.63,1.44-2.82,0-.89-.32-1.66-.9-2.17Z"/>
    <polygon class="st0" points="273.15 66.13 273.15 62.47 278.13 62.47 278.59 62.47 278.59 62.01 278.59 61.17 278.59 60.72 278.13 60.72 273.15 60.72 273.15 57.51 278.35 57.51 278.8 57.51 278.8 57.05 278.8 56.21 278.8 55.76 278.35 55.76 271.68 55.76 271.22 55.76 271.22 56.21 271.22 67.42 271.22 67.88 271.68 67.88 278.58 67.88 279.04 67.88 279.04 67.42 279.04 66.59 279.04 66.13 278.58 66.13 273.15 66.13"/>
    <polygon class="st0" points="295.9 55.76 295.44 55.76 295.44 56.21 295.44 64.6 290.19 55.98 290.06 55.76 289.8 55.76 288.43 55.76 287.98 55.76 287.98 56.21 287.98 67.42 287.98 67.88 288.43 67.88 289.38 67.88 289.84 67.88 289.84 67.42 289.84 59.06 295.09 67.66 295.22 67.88 295.48 67.88 296.84 67.88 297.3 67.88 297.3 67.42 297.3 56.21 297.3 55.76 296.84 55.76 295.9 55.76"/>
    <path class="st0" d="M314.19,64.21h-.4l-.05.39c-.09.62-.46,1-.76,1.2-.4.28-.93.43-1.46.43-.59,0-1.11-.12-1.54-.37-.39-.22-.72-.54-.98-.96-.33-.53-.73-1.51-.73-3.11,0-1.18.28-2.27.79-3.06.58-.9,1.42-1.35,2.5-1.35.57,0,1.09.14,1.47.39.4.27.64.66.69,1.16l.04.41h1.97v-.47c-.03-.6-.25-1.19-.67-1.78h0s0,0,0,0c-.39-.54-.93-.94-1.59-1.19-.56-.22-1.19-.33-1.89-.33-1.68,0-3.07.67-4.02,1.95-.43.57-.75,1.25-.97,2.02-.21.73-.31,1.53-.31,2.36,0,1.73.41,3.2,1.2,4.25.44.59.99,1.05,1.65,1.36.69.33,1.48.5,2.37.5,1.08,0,2.05-.29,2.8-.85.78-.58,1.29-1.42,1.48-2.44l.1-.54h-1.67Z"/>
    <polygon class="st0" points="325.28 55.76 324.83 55.76 324.83 56.21 324.83 67.42 324.83 67.88 325.28 67.88 326.29 67.88 326.75 67.88 326.75 67.42 326.75 56.21 326.75 55.76 326.29 55.76 325.28 55.76"/>
    <path class="st0" d="M341.63,56.03l-.12-.28h-1.68l-.12.28-4.58,11.21-.26.63h2.06l.11-.29,1.1-2.84h5.07l1.16,2.85.12.28h2.18l-.27-.63-4.77-11.21ZM342.48,63h-3.66l1.78-4.58,1.87,4.58Z"/>
    <polygon class="st0" points="361.89 66.13 356.71 66.13 356.71 56.21 356.71 55.76 356.25 55.76 355.24 55.76 354.78 55.76 354.78 56.21 354.78 67.42 354.78 67.88 355.24 67.88 361.89 67.88 362.35 67.88 362.35 67.42 362.35 66.59 362.35 66.13 361.89 66.13"/>
  </g>
</svg>