<?xml version="1.0" encoding="UTF-8"?>
<svg id="Capa_1" xmlns="http://www.w3.org/2000/svg" version="1.1" viewBox="0 0 486.68 71.41">
  <!-- Generator: Adobe Illustrator 30.5.1, SVG Export Plug-In . SVG Version: 2.1.4 Build 3)  -->
  <defs>
    <style>
      .st0 {
        fill: #5b5b5f;
      }

      .st1 {
        fill: #416aa9;
      }

      .st2 {
        fill: #004c94;
      }
    </style>
  </defs>
  <g>
    <g>
      <path class="st2" d="M123.88,12.94v2.16c0,.35.12.64.36.88.24.24.54.35.88.35h13.95c.34,0,.64.13.88.37.24.24.36.53.36.88v7.1c0,.34-.12.63-.36.87-.24.24-.53.36-.88.36h-13.95c-.34,0-.64.12-.88.36-.24.24-.36.54-.36.87v1.96c0,.35.12.64.36.88.24.24.54.35.88.35h16.01c.34,0,.64.12.87.35.24.25.36.54.36.88v7.1c0,.34-.12.63-.36.87-.24.24-.53.36-.87.36h-26.21c-.34,0-.64-.12-.87-.36-.24-.24-.36-.53-.36-.87V3.47c0-.34.12-.63.36-.88.23-.24.53-.35.87-.35h26.21c.34,0,.64.12.87.35.24.24.36.54.36.88v6.99c0,.35-.12.64-.36.88-.24.24-.53.35-.87.35h-16.01c-.34,0-.64.12-.88.37-.24.24-.36.53-.36.87Z"/>
      <path class="st2" d="M158.27,20.3l-12.92-16.57c-.21-.27-.25-.58-.16-.93.11-.34.33-.52.67-.52h9.89c.34,0,.7.11,1.08.31.38.21.67.45.88.72l6.44,9.41c.21.28.45.42.72.42s.51-.14.72-.42c1.1-1.54,2.19-3.13,3.27-4.75,1.08-1.63,2.14-3.2,3.17-4.71.21-.28.5-.51.88-.69.37-.19.73-.29,1.08-.29h9.84c.41,0,.65.18.72.52.07.34,0,.65-.21.93l-12.82,16.57c-.21.28-.31.6-.31.98s.1.7.31.98l12.56,16.15c.21.28.25.59.13.95-.12.36-.35.54-.7.54h-9.78c-.34,0-.7-.11-1.08-.31-.38-.2-.67-.44-.88-.72l-6.18-9.01c-.21-.27-.45-.41-.72-.41s-.52.14-.72.41l-6.18,9.01c-.2.28-.5.52-.87.72-.38.21-.74.31-1.08.31h-9.78c-.35,0-.57-.18-.67-.54-.1-.36-.05-.67.15-.95l12.57-16.15c.21-.28.31-.6.31-.98s-.1-.7-.31-.98Z"/>
      <path class="st2" d="M212.96,11.7h-7.21c-.34,0-.64.12-.87.37-.24.24-.36.53-.36.87v25.72c0,.34-.11.63-.34.87-.22.24-.52.36-.9.36h-7.72c-.35,0-.64-.12-.88-.36-.24-.24-.36-.53-.36-.87V12.94c0-.34-.11-.63-.33-.87-.22-.24-.53-.37-.9-.37h-7.31c-.34,0-.64-.12-.88-.35-.24-.24-.36-.53-.36-.88V3.47c0-.34.12-.63.36-.88.24-.24.54-.35.88-.35h27.19c.37,0,.67.12.9.35.22.24.34.54.34.88v6.99c0,.35-.11.64-.34.88-.22.24-.52.35-.9.35Z"/>
      <path class="st2" d="M227.16,39.9h-7.71c-.35,0-.64-.12-.88-.36-.24-.24-.36-.53-.36-.87V3.47c0-.34.12-.63.36-.88.24-.24.53-.35.87-.35h16.01c1.99,0,3.83.33,5.51,1,1.68.67,3.12,1.6,4.3,2.8,1.19,1.2,2.11,2.62,2.78,4.27.67,1.64,1,3.46,1,5.45,0,1.1-.13,2.19-.39,3.27-.26,1.08-.63,2.1-1.11,3.06-.48.96-1.05,1.82-1.7,2.6-.65.77-1.39,1.42-2.21,1.93-.28.21-.46.45-.54.74-.09.3-.03.58.18.85,1.3,1.72,2.68,3.49,4.12,5.3,1.45,1.82,2.73,3.48,3.86,4.99.21.27.26.58.16.9-.11.33-.33.49-.67.49h-9.58c-.34,0-.7-.09-1.1-.28-.4-.19-.7-.42-.9-.69-1.1-1.45-2.18-2.91-3.26-4.38-1.07-1.48-2.14-2.97-3.2-4.48-.21-.27-.5-.51-.87-.7-.38-.18-.73-.28-1.08-.28h-1.13c-.34,0-.63.12-.87.36-.24.24-.36.53-.36.88v8.34c0,.34-.12.63-.36.87-.24.24-.53.36-.88.36ZM229.64,19.63h5.43c.41,0,.84-.08,1.28-.23.45-.16.85-.39,1.23-.72.37-.33.68-.73.92-1.21.24-.48.36-1.04.36-1.7,0-.34-.06-.75-.18-1.21-.12-.46-.32-.9-.61-1.34-.29-.43-.68-.79-1.18-1.08-.5-.29-1.1-.44-1.82-.44h-5.43c-.34,0-.63.12-.87.37-.24.24-.36.53-.36.87v5.45c0,.34.12.63.36.88.24.24.53.36.87.36Z"/>
      <path class="st2" d="M267.13,3.42c.14-.31.37-.58.69-.8.33-.22.68-.34,1.05-.34h7.21c.35,0,.68.12,1,.34.33.22.56.49.7.8l15.04,34.98c.14.31.11.64-.08.98-.19.34-.56.51-1.11.51h-8.8c-.37,0-.73-.11-1.05-.33-.32-.22-.57-.49-.74-.8l-1.39-3.08c-.17-.31-.42-.58-.74-.8-.33-.22-.66-.33-1.01-.33h-10.86c-.37,0-.73.11-1.05.33-.32.22-.56.49-.69.8l-1.44,3.08c-.14.31-.37.58-.69.8-.33.23-.66.33-1,.33h-8.86c-.17,0-.36-.03-.54-.11-.19-.07-.34-.17-.46-.31-.12-.14-.2-.3-.24-.52-.03-.21.02-.44.16-.72l14.93-34.83ZM270.17,25.8h4.58c.34,0,.6-.11.75-.33.16-.22.14-.49-.02-.79-.35-.86-.76-1.86-1.24-3.01-.48-1.15-.93-2.22-1.34-3.21-.14-.31-.29-.47-.46-.47s-.32.16-.46.47l-2.57,6.22c-.14.31-.14.58,0,.79.13.22.39.33.77.33Z"/>
      <path class="st2" d="M330.82,29.91c-1,1.61-2.1,3.07-3.3,4.39-1.2,1.31-2.55,2.43-4.04,3.35-1.49.92-3.15,1.64-4.97,2.15-1.82.51-3.83.77-6.02.77-2.75,0-5.33-.52-7.73-1.55-2.4-1.03-4.5-2.41-6.3-4.17-1.8-1.75-3.22-3.8-4.25-6.17-1.03-2.36-1.55-4.89-1.55-7.57s.52-5.19,1.55-7.56c1.03-2.37,2.45-4.42,4.25-6.17,1.8-1.75,3.9-3.14,6.3-4.17,2.4-1.03,4.98-1.54,7.73-1.54,2.26,0,4.3.26,6.13.77,1.82.51,3.46,1.23,4.94,2.16,1.47.93,2.8,2.05,3.99,3.37,1.19,1.32,2.28,2.77,3.28,4.35.17.27.21.56.1.87-.1.31-.31.53-.62.67l-7.31,2.88c-.35.13-.69.13-1.03,0-.34-.14-.6-.34-.77-.63-1-1.57-2.2-2.78-3.61-3.62-1.4-.84-3.11-1.26-5.09-1.26-1.3,0-2.54.27-3.68.83-1.15.54-2.16,1.28-3.01,2.19-.86.91-1.53,1.97-2.01,3.17-.48,1.2-.72,2.44-.72,3.71s.24,2.56.72,3.74c.48,1.19,1.15,2.23,2.01,3.12.86.9,1.86,1.62,3.01,2.17,1.15.55,2.38.83,3.68.83,1.88,0,3.59-.46,5.12-1.36,1.53-.91,2.73-2.08,3.63-3.52.17-.28.42-.48.75-.62.32-.13.66-.13,1,0l7.31,2.88c.31.14.52.35.62.64.11.29.07.59-.1.9Z"/>
      <path class="st2" d="M359.09,11.7h-7.21c-.34,0-.63.12-.87.37-.24.24-.36.53-.36.87v25.72c0,.34-.11.63-.33.87-.23.24-.53.36-.9.36h-7.72c-.34,0-.64-.12-.88-.36-.24-.24-.36-.53-.36-.87V12.94c0-.34-.11-.63-.33-.87-.23-.24-.52-.37-.9-.37h-7.31c-.35,0-.63-.12-.87-.35-.24-.24-.36-.53-.36-.88V3.47c0-.34.12-.63.36-.88.24-.24.53-.35.87-.35h27.19c.37,0,.67.12.9.35.22.24.34.54.34.88v6.99c0,.35-.11.64-.34.88-.22.24-.52.35-.9.35Z"/>
      <path class="st2" d="M362.02,45.35c-.31.13-.62.12-.95-.06-.33-.17-.56-.41-.7-.72l-1.13-2.67c-.17-.31-.19-.63-.05-.93.14-.31.36-.53.67-.67.14-.07.26-.12.36-.15.1-.03.2-.07.31-.11.62-.27.65-.65.11-1.13-1-.87-1.55-2.08-1.65-3.66-.03-.72.07-1.41.31-2.09.24-.67.59-1.25,1.06-1.75.46-.49,1.01-.89,1.65-1.18.63-.29,1.31-.45,2.04-.49,1.33-.07,2.49.29,3.47,1.08.98.79,1.62,1.84,1.93,3.14.11.31.17.64.21,1,.04.35.05.73.05,1.1,0,.93-.17,1.86-.51,2.8-.34.95-.83,1.83-1.46,2.65-.64.83-1.44,1.57-2.4,2.24-.96.67-2.06,1.19-3.3,1.57Z"/>
      <path class="st2" d="M395.24,26.98c1.86,1.2,3.69,2.14,5.51,2.83,1.82.69,3.52,1.03,5.1,1.03s2.66-.22,3.45-.64c.79-.43,1.19-1.08,1.19-1.92,0-.45-.17-.8-.52-1.06-.34-.26-.79-.48-1.36-.64-.57-.17-1.23-.31-1.98-.41-.76-.11-1.53-.24-2.32-.42-.75-.13-1.64-.29-2.65-.49-1.01-.19-2.05-.46-3.12-.83-1.06-.35-2.12-.81-3.17-1.36-1.04-.55-1.98-1.25-2.81-2.11-.82-.86-1.49-1.88-1.98-3.06-.5-1.19-.75-2.58-.75-4.19,0-2.36.46-4.32,1.39-5.87.92-1.54,2.1-2.77,3.52-3.68,1.43-.91,3.01-1.54,4.77-1.9,1.75-.36,3.45-.54,5.1-.54,2.88,0,5.47.42,7.75,1.26,2.28.84,4.47,2.07,6.56,3.68.27.24.43.53.46.88.04.34-.05.65-.26.93l-4.02,5.71c-.21.28-.48.45-.83.52-.34.07-.65,0-.92-.21-1.75-1.1-3.38-1.88-4.89-2.34-1.51-.46-2.9-.7-4.17-.7-.38,0-.82.02-1.31.03-.5.01-.97.08-1.42.21-.44.12-.82.32-1.1.59-.29.28-.44.65-.44,1.13s.36.91,1.08,1.29c.72.38,1.55.7,2.47.98.93.27,1.82.48,2.68.64.86.15,1.41.25,1.65.28,1.24.24,2.59.59,4.07,1.06,1.48.46,2.86,1.15,4.15,2.05,1.28.91,2.36,2.1,3.24,3.55.87,1.46,1.31,3.29,1.31,5.48,0,2.06-.36,3.84-1.08,5.32-.72,1.5-1.72,2.72-3.01,3.68-1.29.96-2.83,1.67-4.64,2.14-1.8.46-3.8.69-6,.69-1.78,0-3.45-.15-5-.44-1.54-.29-2.99-.69-4.33-1.2-1.33-.52-2.58-1.13-3.73-1.83-1.15-.7-2.21-1.45-3.17-2.24-.28-.21-.43-.49-.46-.85-.03-.36.05-.68.26-.95l3.96-5.71c.21-.27.49-.44.82-.52.35-.07.66-.01.93.16Z"/>
      <path class="st2" d="M434.32,34.96c0,.72-.14,1.4-.41,2.06-.27.65-.65,1.21-1.13,1.7-.48.48-1.05.85-1.7,1.13-.65.28-1.34.41-2.06.41s-1.4-.13-2.03-.41c-.64-.28-1.2-.65-1.68-1.13-.48-.48-.86-1.05-1.13-1.7-.27-.65-.41-1.34-.41-2.06s.14-1.39.41-2.01c.27-.62.65-1.16,1.13-1.65.48-.48,1.04-.85,1.68-1.13.63-.28,1.31-.41,2.03-.41s1.41.13,2.06.41c.65.28,1.22.65,1.7,1.13.48.48.86,1.03,1.13,1.65.27.62.41,1.29.41,2.01Z"/>
      <path class="st2" d="M449.04,3.42c.14-.31.37-.58.69-.8.33-.22.68-.34,1.06-.34h7.21c.34,0,.67.12,1,.34.33.22.56.49.7.8l15.04,34.98c.13.31.11.64-.08.98-.19.34-.56.51-1.11.51h-8.81c-.37,0-.73-.11-1.05-.33-.32-.22-.57-.49-.75-.8l-1.39-3.08c-.17-.31-.42-.58-.74-.8-.32-.22-.66-.33-1-.33h-10.86c-.38,0-.73.11-1.06.33-.32.22-.56.49-.69.8l-1.44,3.08c-.14.31-.37.58-.7.8-.33.23-.66.33-1,.33h-8.86c-.18,0-.35-.03-.54-.11-.19-.07-.34-.17-.46-.31-.12-.14-.2-.3-.23-.52-.03-.21.02-.44.16-.72l14.93-34.83ZM452.08,25.8h4.58c.34,0,.59-.11.75-.33.15-.22.14-.49-.03-.79-.34-.86-.75-1.86-1.23-3.01-.48-1.15-.93-2.22-1.34-3.21-.14-.31-.29-.47-.46-.47s-.32.16-.46.47l-2.58,6.22c-.14.31-.14.58,0,.79.14.22.4.33.78.33Z"/>
      <path class="st2" d="M486.68,34.96c0,.72-.14,1.4-.41,2.06-.27.65-.65,1.21-1.13,1.7-.48.48-1.05.85-1.7,1.13s-1.34.41-2.06.41-1.4-.13-2.03-.41-1.19-.65-1.68-1.13c-.48-.48-.86-1.05-1.13-1.7-.27-.65-.41-1.34-.41-2.06s.14-1.39.41-2.01c.27-.62.65-1.16,1.13-1.65.48-.48,1.04-.85,1.68-1.13.64-.28,1.31-.41,2.03-.41s1.41.13,2.06.41c.65.28,1.22.65,1.7,1.13.48.48.86,1.03,1.13,1.65.27.62.41,1.29.41,2.01Z"/>
    </g>
    <g>
      <polygon class="st0" points="133.42 57.43 132.97 57.43 132.97 57.89 132.97 66.28 127.72 57.65 127.59 57.43 127.33 57.43 125.96 57.43 125.5 57.43 125.5 57.89 125.5 69.1 125.5 69.56 125.96 69.56 126.91 69.56 127.37 69.56 127.37 69.1 127.37 60.74 132.61 69.34 132.75 69.56 133 69.56 134.37 69.56 134.83 69.56 134.83 69.1 134.83 57.89 134.83 57.43 134.37 57.43 133.42 57.43"/>
      <path class="st0" d="M149.65,57.71l-.12-.28h-1.68l-.12.28-4.58,11.21-.26.63h2.06l.11-.29,1.1-2.84h5.07l1.16,2.85.12.28h2.18l-.27-.63-4.77-11.21ZM150.5,64.67h-3.66l1.78-4.58,1.87,4.58Z"/>
      <polygon class="st0" points="160.49 57.43 160.03 57.43 160.03 57.89 160.03 58.73 160.03 59.18 160.49 59.18 163.63 59.18 163.63 69.1 163.63 69.56 164.08 69.56 165.09 69.56 165.55 69.56 165.55 69.1 165.55 59.18 168.7 59.18 169.16 59.18 169.16 58.73 169.16 57.89 169.16 57.43 168.7 57.43 160.49 57.43"/>
      <path class="st0" d="M185.32,57.43h-.46v7.18c0,.68-.02,1.39-.26,1.92-.21.46-.55.82-1.01,1.07-.44.23-.96.36-1.52.36-.48,0-.95-.09-1.35-.27-.43-.19-.77-.46-1.01-.82-.4-.6-.44-1.35-.44-2.26v-7.18h-1.97v7.54c0,.73.1,1.4.31,1.98.21.59.53,1.1.94,1.52.41.41.93.73,1.52.94.59.21,1.26.31,1.99.31,1.44,0,2.65-.44,3.49-1.28.84-.84,1.28-2.04,1.28-3.47v-7.54h-1.51Z"/>
      <path class="st0" d="M204.61,68.03c-.08-.42-.13-.92-.18-1.45-.09-.94-.19-1.9-.47-2.53-.15-.33-.37-.6-.67-.81.3-.18.55-.39.75-.62.45-.53.68-1.21.68-2.03,0-1.09-.46-1.96-1.33-2.5-.86-.54-1.93-.65-2.67-.65h-4.23v12.12h1.92v-5.41h2.2c1.03,0,1.32.23,1.48.46.23.34.29.92.37,1.84.01.15.02.31.04.47.05.77.11,1.64.46,2.38l.12.26h2.49l-.7-.76c-.06-.06-.16-.24-.26-.76ZM202.74,60.7c0,.65-.2,1.08-.62,1.34-.38.24-.94.35-1.71.35h-2v-3.21h2.08c.77,0,1.29.09,1.65.3.26.14.6.43.6,1.22Z"/>
      <path class="st0" d="M219.26,57.71l-.12-.28h-1.68l-.12.28-4.58,11.21-.26.63h2.06l.11-.29,1.1-2.84h5.07l1.16,2.85.12.28h2.18l-.27-.63-4.77-11.21ZM220.12,64.67h-3.66l1.78-4.58,1.87,4.58Z"/>
      <polygon class="st0" points="234.34 67.81 234.34 57.89 234.34 57.43 233.88 57.43 232.87 57.43 232.42 57.43 232.42 57.89 232.42 69.1 232.42 69.56 232.87 69.56 239.53 69.56 239.98 69.56 239.98 69.1 239.98 68.26 239.98 67.81 239.53 67.81 234.34 67.81"/>
      <polygon class="st0" points="258.73 57.43 258.43 57.43 258.31 57.72 254.71 66.67 251.07 57.72 250.96 57.43 250.65 57.43 248.99 57.43 248.53 57.43 248.53 57.89 248.53 69.1 248.53 69.56 248.99 69.56 249.93 69.56 250.39 69.56 250.39 69.1 250.39 61.05 253.76 69.27 253.87 69.56 254.18 69.56 255.18 69.56 255.48 69.56 255.6 69.27 258.95 61.06 258.95 69.1 258.95 69.56 259.4 69.56 260.4 69.56 260.85 69.56 260.85 69.1 260.85 57.89 260.85 57.43 260.4 57.43 258.73 57.43"/>
      <polygon class="st0" points="272.59 67.81 272.59 64.15 277.57 64.15 278.03 64.15 278.03 63.69 278.03 62.85 278.03 62.39 277.57 62.39 272.59 62.39 272.59 59.18 277.79 59.18 278.24 59.18 278.24 58.73 278.24 57.89 278.24 57.43 277.79 57.43 271.12 57.43 270.66 57.43 270.66 57.89 270.66 69.1 270.66 69.56 271.12 69.56 278.02 69.56 278.48 69.56 278.48 69.1 278.48 68.26 278.48 67.81 278.02 67.81 272.59 67.81"/>
      <polygon class="st0" points="295.33 57.43 294.88 57.43 294.88 57.89 294.88 66.28 289.63 57.65 289.49 57.43 289.24 57.43 287.87 57.43 287.41 57.43 287.41 57.89 287.41 69.1 287.41 69.56 287.87 69.56 288.82 69.56 289.27 69.56 289.27 69.1 289.27 60.74 294.52 69.34 294.66 69.56 294.91 69.56 296.28 69.56 296.73 69.56 296.73 69.1 296.73 57.89 296.73 57.43 296.28 57.43 295.33 57.43"/>
      <polygon class="st0" points="305.44 57.43 304.99 57.43 304.99 57.89 304.99 58.73 304.99 59.18 305.44 59.18 308.58 59.18 308.58 69.1 308.58 69.56 309.03 69.56 310.04 69.56 310.5 69.56 310.5 69.1 310.5 59.18 313.65 59.18 314.11 59.18 314.11 58.73 314.11 57.89 314.11 57.43 313.65 57.43 305.44 57.43"/>
      <polygon class="st0" points="324.35 67.81 324.35 64.15 329.33 64.15 329.79 64.15 329.79 63.69 329.79 62.85 329.79 62.39 329.33 62.39 324.35 62.39 324.35 59.18 329.55 59.18 330.01 59.18 330.01 58.73 330.01 57.89 330.01 57.43 329.55 57.43 322.88 57.43 322.43 57.43 322.43 57.89 322.43 69.1 322.43 69.56 322.88 69.56 329.78 69.56 330.24 69.56 330.24 69.1 330.24 68.26 330.24 67.81 329.78 67.81 324.35 67.81"/>
      <polygon class="st0" points="352.97 67.81 352.97 64.15 357.96 64.15 358.41 64.15 358.41 63.69 358.41 62.85 358.41 62.39 357.96 62.39 352.97 62.39 352.97 59.18 358.17 59.18 358.63 59.18 358.63 58.73 358.63 57.89 358.63 57.43 358.17 57.43 351.5 57.43 351.05 57.43 351.05 57.89 351.05 69.1 351.05 69.56 351.5 69.56 358.41 69.56 358.86 69.56 358.86 69.1 358.86 68.26 358.86 67.81 358.41 67.81 352.97 67.81"/>
      <path class="st0" d="M374.92,63.88c-.76-.67-1.78-.98-2.77-1.29-.86-.27-1.68-.52-2.28-.98-.32-.25-.46-.54-.46-.96,0-.52.22-.92.67-1.2.41-.26.99-.4,1.61-.4s1.06.1,1.38.31c.35.22.54.57.59,1.06l.04.41h1.92v-.46c-.03-1.06-.49-1.9-1.35-2.44-.85-.52-1.9-.63-2.62-.63-1.09,0-2.09.28-2.82.78-.89.61-1.35,1.53-1.35,2.65,0,.55.12,1.04.36,1.47.21.38.52.71.93.99.71.5,1.61.78,2.48,1.06.74.24,1.44.46,1.94.78.49.32.7.68.7,1.19,0,.56-.24.98-.74,1.29-.44.27-1.07.43-1.73.43s-1.24-.15-1.63-.42c-.43-.3-.64-.74-.66-1.34v-.44h-2.02l.05.5c.11,1.16.57,2.06,1.37,2.66.72.54,1.67.81,2.85.81s2.23-.3,3.01-.83c.94-.65,1.44-1.63,1.44-2.82,0-.89-.32-1.66-.9-2.17Z"/>
      <polygon class="st0" points="386.83 67.81 386.83 64.15 391.81 64.15 392.27 64.15 392.27 63.69 392.27 62.85 392.27 62.39 391.81 62.39 386.83 62.39 386.83 59.18 392.03 59.18 392.49 59.18 392.49 58.73 392.49 57.89 392.49 57.43 392.03 57.43 385.36 57.43 384.91 57.43 384.91 57.89 384.91 69.1 384.91 69.56 385.36 69.56 392.26 69.56 392.72 69.56 392.72 69.1 392.72 68.26 392.72 67.81 392.26 67.81 386.83 67.81"/>
      <polygon class="st0" points="409.58 57.43 409.12 57.43 409.12 57.89 409.12 66.28 403.88 57.65 403.74 57.43 403.49 57.43 402.12 57.43 401.66 57.43 401.66 57.89 401.66 69.1 401.66 69.56 402.12 69.56 403.07 69.56 403.52 69.56 403.52 69.1 403.52 60.74 408.77 69.34 408.9 69.56 409.16 69.56 410.53 69.56 410.98 69.56 410.98 69.1 410.98 57.89 410.98 57.43 410.53 57.43 409.58 57.43"/>
      <path class="st0" d="M427.87,65.88h-.4l-.05.39c-.09.62-.46,1-.76,1.2-.4.28-.93.43-1.46.43-.59,0-1.11-.12-1.54-.37-.39-.22-.72-.54-.98-.96-.33-.53-.73-1.51-.73-3.11,0-1.18.28-2.27.79-3.06.58-.9,1.42-1.35,2.5-1.35.57,0,1.09.14,1.47.39.4.27.64.66.69,1.16l.04.41h1.97v-.47c-.03-.6-.25-1.19-.67-1.78h0s0,0,0,0c-.39-.54-.93-.94-1.59-1.19-.56-.22-1.19-.33-1.89-.33-1.68,0-3.07.67-4.02,1.95-.43.57-.75,1.25-.97,2.02-.21.73-.31,1.53-.31,2.36,0,1.73.41,3.2,1.2,4.25.44.59.99,1.05,1.65,1.36.69.33,1.48.5,2.37.5,1.08,0,2.05-.29,2.8-.85.78-.58,1.29-1.42,1.48-2.44l.1-.54h-1.67Z"/>
      <polygon class="st0" points="438.96 57.43 438.51 57.43 438.51 57.89 438.51 69.1 438.51 69.56 438.96 69.56 439.97 69.56 440.43 69.56 440.43 69.1 440.43 57.89 440.43 57.43 439.97 57.43 438.96 57.43"/>
      <path class="st0" d="M455.31,57.71l-.12-.28h-1.68l-.12.28-4.58,11.21-.26.63h2.06l.11-.29,1.1-2.84h5.07l1.16,2.85.12.28h2.18l-.27-.63-4.77-11.21ZM456.17,64.67h-3.66l1.78-4.58,1.87,4.58Z"/>
      <polygon class="st0" points="475.58 67.81 470.39 67.81 470.39 57.89 470.39 57.43 469.93 57.43 468.92 57.43 468.47 57.43 468.47 57.89 468.47 69.1 468.47 69.56 468.92 69.56 475.58 69.56 476.03 69.56 476.03 69.1 476.03 68.26 476.03 67.81 475.58 67.81"/>
    </g>
  </g>
  <g>
    <polygon class="st2" points="0 0 0 5.1 5.08 0 0 0"/>
    <path class="st2" d="M4.08,45.77l-.94-.94.94-.94c.09-.09.5-.5,1.09-1.09,1.78-1.78,5.23-5.23,6.89-6.89L0,23.85v5.18l5.94,5.94-1.88,1.88-4.06-4.06v7.07l1.46,1.46-1.46,1.46v4.1c.81.81,1.46,1.46,1.46,1.46l-1.46,1.46v7.06l4.06-4.06,1.88,1.88-5.94,5.94v5.18l12.06-12.06c-2.22-2.22-7.61-7.61-7.99-7.99Z"/>
    <path class="st2" d="M78.42,44.83h0s6.41,6.41,6.41,6.41v-12.83c-1.85,1.85-4.87,4.87-6.41,6.41h0Z"/>
    <path class="st2" d="M31.83,60.82l15.87-15.98-15.87-15.98-15.87,15.98,15.87,15.98ZM31.88,32.33l12.6,12.5-.94.94c-.57.57-10.77,10.76-10.77,10.76l-.94.94-.94-.94c-.1-.1-10.2-10.2-10.76-10.76l-.95-.94,12.7-12.51Z"/>
    <path class="st2" d="M31.83,53.72c2.04-2.04,6.83-6.83,8.89-8.89l-1.93-1.93c-2.32-2.32-5.42-5.42-6.96-6.96l-8.89,8.89c2.06,2.06,6.84,6.84,8.89,8.89ZM31.83,40.38s4.13,4.13,4.45,4.45c-.32.32-4.45,4.45-4.45,4.45,0,0-4.13-4.13-4.45-4.45.32-.32,4.45-4.45,4.45-4.45Z"/>
    <path class="st2" d="M14.84,9.93h0s.02.02.02.02l-.12.12-7.86,7.86,16.04,16.12,8.91-8.98.94.94s1.25,1.26,3.08,3.1l4.9,4.93,16.04-16.12-7.97-7.97h0s-.02-.02-.02-.02l7.99-7.99-1.96-1.97h-4.95l1.74,1.74-8.21,8.21,8.21,8.21-9.87,9.86-1.88-1.88,7.99-7.98-8.19-8.19-.02-.02L47.86,1.74l-1.74-1.74h-10.52l-3.77,3.77-3.77-3.77h-10.52l-1.74,1.74,8.21,8.21h-.01s-.11.12-.11.12h0s-8.09,8.09-8.09,8.09l7.99,7.98-1.88,1.88-9.87-9.86,8.21-8.21L12.04,1.74l1.74-1.74h-4.95l-1.96,1.97,7.97,7.97ZM35.36,23.43l-3.53-3.53-3.53,3.53-1.88-1.88,5.41-5.41,5.41,5.41-1.88,1.88ZM21.94,17.09l7.13-7.13-7.13-7.13,1.88-1.88,8.01,8.01L39.84.94l1.88,1.88-7.13,7.13,7.13,7.13-1.88,1.88-8.01-8.01-8.01,8.01-1.88-1.88Z"/>
    <polygon class="st2" points="58.67 3.85 52.57 9.95 58.67 16.05 64.74 9.95 58.67 3.85"/>
    <polygon class="st2" points="84.82 15.51 84.82 4.4 79.27 9.95 84.82 15.51"/>
    <path class="st2" d="M51.6,35.91c1.66,1.66,5.11,5.11,6.89,6.89.59.59,1,1,1.09,1.09l.94.94-8.93,8.93,17.65,17.65h-3.76l-17.65-17.65,8.93-8.92c-2.31-2.31-7.98-7.99-7.98-7.99l-.94-.94,25.96-25.96L63.85,0h-5.26l9.91,9.95h-.01s0,.02,0,.02l-25.85,25.97,8.83,8.89-8.83,8.89,17.59,17.68h-3.75l-15.72-15.79-8.92,8.98-8.91-8.98-15.72,15.79h-3.75l17.6-17.68-8.83-8.89,8.83-8.89L0,14.8v5.29l15.82,15.82-.94.94s-5.68,5.68-7.99,7.99c2.31,2.31,7.99,7.98,7.99,7.98l.94.94L0,69.58v1.82h0s84.82,0,84.82,0h0s-1,0-1,0l1-1v-6.44l-8.29-8.35-8.92,8.98-9.89-9.89,1.88-1.88,8,8,8.9-8.97v.04s.03-.05.03-.05l8.29,8.34v-5.8l-.31.31-7.98-7.98c-2.31,2.31-7.98,7.98-7.98,7.98l-1.88-1.88s5.67-5.67,7.98-7.98h0s0-.01,0-.01l-7.98-7.98,1.88-1.88,7.98,7.98c2.31-2.31,7.98-7.98,7.98-7.98l.31.31v-5.8l-8.29,8.33h0s-8.92-8.97-8.92-8.97l-8,8-1.88-1.88,9.89-9.89,8.92,8.98,8.29-8.35v-6.44l-8.29-8.29-24.93,24.93ZM12.14,71.4l9.77-9.76,1.88,1.88-7.89,7.88h-3.76ZM23.12,71.4l.7-.7.7.7h-1.41ZM33.96,71.4h-4.25l-3.29-3.29,1.88-1.88,3.53,3.53,3.53-3.53,1.88,1.88-3.29,3.29ZM39.14,71.4l.7-.7.7.7h-1.41ZM47.76,71.4l-7.89-7.88,1.88-1.88,9.77,9.76h-3.76ZM73.07,63.72l3.46,3.8,3.47-3.8,1.97,1.79-5.39,5.9h-.11l-5.37-5.9,1.97-1.79ZM62.2,41.32l1.88-1.88,5.39,5.39-.94.94c-.32.32-4.45,4.45-4.45,4.45l-1.88-1.88s2.2-2.2,3.51-3.51l-3.51-3.51ZM81.97,24.16l-1.97,1.79-3.47-3.8-3.46,3.8-1.97-1.79,5.43-5.94h0s0,0,0,0h0s0,0,0,0l5.43,5.93Z"/>
    <polygon class="st2" points="78.08 0 76.54 1.69 76.53 1.7 74.98 0 67.61 0 76.53 8.93 84.82 .64 84.82 0 78.08 0"/>
    <polygon class="st2" points="31.84 0 31.83 0 31.83 0 31.84 0"/>
    <polygon class="st2" points="11.1 9.95 5 3.85 0 8.87 0 11.03 5 16.05 11.1 9.95"/>
    <path class="st1" d="M64.08,50.23s4.13-4.13,4.45-4.45l.94-.94-5.39-5.39-1.88,1.88,3.51,3.51c-1.32,1.32-3.51,3.51-3.51,3.51l1.88,1.88Z"/>
    <polygon class="st1" points="26.42 21.55 28.3 23.43 31.83 19.9 35.36 23.43 37.25 21.55 31.83 16.14 26.42 21.55"/>
    <polygon class="st1" points="67.62 25.08 57.73 34.97 59.61 36.85 67.61 28.85 76.53 37.83 76.54 37.81 84.82 29.48 84.82 25.71 76.53 34.06 67.62 25.08"/>
    <polygon class="st1" points="76.53 18.22 76.53 18.22 76.53 18.23 71.1 24.16 73.07 25.95 76.53 22.15 80 25.95 81.97 24.16 76.54 18.23 76.53 18.22 76.53 18.22"/>
    <polygon class="st1" points="39.14 71.4 40.54 71.4 39.84 70.7 39.14 71.4"/>
    <polygon class="st1" points="39.88 63.52 47.76 71.4 51.52 71.4 41.76 61.64 39.88 63.52"/>
    <polygon class="st1" points="31.83 69.77 28.3 66.24 26.42 68.12 29.71 71.4 33.96 71.4 37.25 68.12 35.36 66.24 31.83 69.77"/>
    <polygon class="st1" points="76.52 71.4 76.58 71.4 81.97 65.51 80 63.72 76.53 67.52 73.07 63.72 71.1 65.51 76.48 71.4 76.52 71.4"/>
    <path class="st1" d="M31.83,49.28s4.14-4.13,4.45-4.45c-.32-.32-4.45-4.45-4.45-4.45,0,0-4.13,4.13-4.45,4.45.33.32,4.45,4.45,4.45,4.45Z"/>
    <polygon class="st1" points="0 39.86 0 42.79 1.46 41.32 0 39.86"/>
    <path class="st1" d="M0,46.88v2.93l1.46-1.46s-.66-.66-1.46-1.46Z"/>
    <path class="st1" d="M20.13,45.78c.56.56,10.66,10.66,10.76,10.76l.94.94.94-.94s10.2-10.2,10.77-10.76l.94-.94-12.6-12.5-12.7,12.51.95.94ZM31.83,35.95c1.54,1.54,4.64,4.64,6.96,6.96l1.93,1.93c-2.06,2.06-6.85,6.85-8.89,8.89-2.04-2.05-6.83-6.83-8.89-8.89l8.89-8.89Z"/>
    <polygon class="st1" points="5.94 34.97 0 29.03 0 32.79 4.06 36.85 5.94 34.97"/>
    <polygon class="st1" points="23.12 71.4 24.53 71.4 23.82 70.7 23.12 71.4"/>
    <polygon class="st1" points="21.91 61.64 12.14 71.4 15.9 71.4 23.79 63.52 21.91 61.64"/>
    <polygon class="st1" points="4.06 52.82 0 56.87 0 60.64 5.94 54.7 4.06 52.82"/>
    <path class="st1" d="M12.21,44.83l8.83,8.89L3.45,71.4h3.75l15.72-15.79,8.91,8.98,8.92-8.98,15.72,15.79h3.75l-17.59-17.68,8.83-8.89-8.83-8.89,25.85-25.97h0s.01-.02.01-.02L58.58,0h-3.75l1.96,1.97-7.99,7.99.02.02h0s7.97,7.97,7.97,7.97l-16.04,16.12-4.9-4.93c-1.83-1.84-3.08-3.1-3.08-3.1l-.94-.94-8.91,8.98L6.87,17.94l7.86-7.86.12-.12-.02-.02h0S6.87,1.97,6.87,1.97l1.96-1.97h-3.75L0,5.1v3.77L5,3.85l6.1,6.1-6.1,6.1L0,11.03v3.77l21.04,21.14-8.83,8.89ZM52.57,9.95l6.1-6.1,6.07,6.1-6.07,6.1-6.1-6.1ZM31.83,28.85l15.87,15.98-15.87,15.98-15.87-15.98,15.87-15.98Z"/>
    <path class="st1" d="M76.53,42.95l-7.98-7.98-1.88,1.88,7.98,7.98h0s0,.01,0,.01c-2.31,2.31-7.98,7.98-7.98,7.98l1.88,1.88s5.67-5.67,7.98-7.98l7.98,7.98.31-.31v-3.14l-6.41-6.41h0s0,0,0,0c1.54-1.54,4.56-4.56,6.41-6.41v-3.14l-.31-.31s-5.67,5.67-7.98,7.98Z"/>
    <polygon class="st1" points="76.52 51.89 76.51 51.85 67.61 60.82 59.61 52.82 57.73 54.7 67.62 64.59 76.53 55.61 84.82 63.96 84.82 60.18 76.54 51.84 76.52 51.89"/>
    <polygon class="st1" points="84.82 71.4 84.82 70.4 83.82 71.4 84.82 71.4"/>
    <polygon class="st1" points="31.83 10.96 39.84 18.97 41.72 17.09 34.59 9.95 41.72 2.82 39.84 .94 31.83 8.95 23.82 .94 21.94 2.82 29.08 9.95 21.94 17.09 23.82 18.97 31.83 10.96"/>
    <path class="st1" d="M14.88,52.82s-5.68-5.67-7.99-7.98c2.31-2.31,7.99-7.99,7.99-7.99l.94-.94L0,20.09v3.76l12.06,12.06c-1.66,1.66-5.11,5.11-6.89,6.89-.59.59-1,1-1.09,1.09l-.94.94.94.94c.37.37,5.77,5.77,7.99,7.99L0,65.82v3.76l15.82-15.82-.94-.94Z"/>
    <polygon class="st1" points="39.65 9.95 39.67 9.97 47.86 18.16 39.88 26.15 41.76 28.03 51.62 18.16 43.41 9.95 51.62 1.74 49.88 0 46.12 0 47.86 1.74 39.65 9.95"/>
    <polygon class="st1" points="35.6 0 31.84 0 31.83 0 31.83 0 28.06 0 31.83 3.77 35.6 0"/>
    <path class="st1" d="M67.61,0h-3.76l9.95,9.95-25.96,25.96.94.94s5.67,5.68,7.98,7.99l-8.93,8.92,17.65,17.65h3.76l-17.65-17.65,8.93-8.93-.94-.94c-.09-.09-.5-.5-1.09-1.09-1.78-1.78-5.23-5.23-6.89-6.89l24.93-24.93,8.29,8.29v-3.76l-5.56-5.56,5.56-5.55h0V.64l-8.29,8.29L67.61,0Z"/>
    <polygon class="st1" points="76.54 1.69 78.08 0 75.96 0 74.98 0 76.53 1.7 76.54 1.69"/>
    <polygon class="st1" points="20.25 9.95 12.04 18.16 21.91 28.03 23.79 26.15 15.8 18.16 23.89 10.08 23.89 10.07 24 9.96 24.01 9.95 15.8 1.74 17.54 0 13.78 0 12.04 1.74 20.25 9.95"/>
  </g>
</svg>